<svg width="73" height="73" viewBox="0 0 73 73" fill="none" xmlns="http://www.w3.org/2000/svg">
<g clip-path="url(#clip0_440_2083)">
<path d="M0.131836 22.897H72.9995V50.2548H0.131836" fill="#F0F5FF" fill-opacity="0.25"/>
<path d="M38.4883 36.4658C37.9994 36.4658 37.6473 36.6258 37.29 36.7887V40.478C37.6326 40.5115 37.8276 40.5115 38.1531 40.5115C39.3264 40.5115 39.4869 39.9744 39.4869 39.2257V37.4632C39.4869 36.9102 39.3033 36.4658 38.4883 36.4658ZM30.6979 36.2644C29.8839 36.2644 29.6988 36.7107 29.6988 37.2632V37.5733H31.697V37.2632C31.6968 36.7104 31.511 36.2644 30.6979 36.2644ZM15.6068 40.1048C15.6068 40.5414 15.813 40.7686 16.269 40.7686C16.7581 40.7686 17.0473 40.6096 17.4044 40.4455V39.571H16.335C15.8289 39.5712 15.6068 39.6647 15.6068 40.1048ZM46.0667 36.4658C45.2515 36.4658 44.969 36.9102 44.969 37.4627V39.4818C44.969 40.0366 45.2515 40.4814 46.0667 40.4814C46.8795 40.4814 47.1643 40.0361 47.1643 39.4818V37.4627C47.1641 36.9102 46.8795 36.4658 46.0667 36.4658ZM11.6114 42.3677H9.21569V36.5755H8.01758V34.579H9.21569V33.3807C9.21569 31.7522 9.89186 30.7837 11.8119 30.7837H13.4115V32.7801H12.4124C11.6645 32.7801 11.6148 33.0592 11.6148 33.5797L11.6114 34.5788H13.4231L13.211 36.5752H11.6114V42.3677ZM19.8019 42.3827H17.8047L17.7189 41.8781C16.8066 42.3827 15.9926 42.4646 15.4557 42.4646C13.9906 42.4646 13.2113 41.4875 13.2113 40.1361C13.2113 38.542 14.1207 37.9726 15.7482 37.9726H17.4047V37.628C17.4047 36.8138 17.3112 36.5752 16.0581 36.5752H14.0089L14.2094 34.5788H16.449C19.1989 34.5788 19.8019 35.447 19.8019 37.6442V42.3827ZM26.5934 36.722C25.3507 36.509 24.9936 36.4622 24.396 36.4622C23.3217 36.4622 22.9969 36.6991 22.9969 37.6097V39.3332C22.9969 40.244 23.3217 40.4816 24.396 40.4816C24.9936 40.4816 25.3507 40.4346 26.5934 40.2209V42.1675C25.5045 42.4118 24.7955 42.4757 24.1965 42.4757C21.6231 42.4757 20.6012 41.1245 20.6012 39.1722V37.7736C20.6012 35.8203 21.6231 34.4662 24.1965 34.4662C24.7955 34.4662 25.505 34.5311 26.5934 34.7752V36.722ZM34.0927 39.1722H29.6986V39.3332C29.6986 40.244 30.0234 40.4816 31.0972 40.4816C32.063 40.4816 32.652 40.4346 33.8925 40.2209V42.1675C32.6963 42.4118 32.0731 42.4757 30.8986 42.4757C28.3255 42.4757 27.3024 41.1245 27.3024 39.1722V37.5731C27.3024 35.8656 28.0619 34.4662 30.6982 34.4662C33.3349 34.4662 34.093 35.8489 34.093 37.5731L34.0927 39.1722ZM41.8829 39.2088C41.8829 41.0956 41.3431 42.4718 38.0724 42.4718C36.8921 42.4718 36.1984 42.3677 34.8945 42.1672V31.383L37.29 30.9842V34.7561C37.8073 34.5638 38.478 34.4665 39.0879 34.4665C41.4841 34.4665 41.8831 35.5395 41.8831 37.2627L41.8829 39.2088ZM49.5627 39.25C49.5627 40.8776 48.8897 42.4564 46.0746 42.4564C43.2579 42.4564 42.5726 40.8776 42.5726 39.25V37.6786C42.5726 36.0506 43.2579 34.4715 46.0746 34.4715C48.8897 34.4715 49.5627 36.0506 49.5627 37.6786V39.25ZM57.236 39.25C57.236 40.8776 56.5625 42.4564 53.7484 42.4564C50.9317 42.4564 50.2459 40.8776 50.2459 39.25V37.6786C50.2459 36.0506 50.9317 34.4715 53.7484 34.4715C56.5625 34.4715 57.236 36.0506 57.236 37.6786V39.25ZM65.1124 42.3677H62.515L60.319 38.7071V42.3677H57.9232V31.383L60.319 30.9842V38.0558L62.515 34.579H65.1124L62.7145 38.3729L65.1124 42.3677ZM53.7402 36.4658C52.9264 36.4658 52.644 36.9102 52.644 37.4627V39.4818C52.644 40.0366 52.9264 40.4814 53.7402 40.4814C54.553 40.4814 54.8405 40.0361 54.8405 39.4818V37.4627C54.8405 36.9102 54.553 36.4658 53.7402 36.4658ZM66.4802 41.0019C66.8836 41.0019 67.205 41.3303 67.205 41.7405C67.205 42.1571 66.8836 42.4822 66.4768 42.4822C66.0732 42.4822 65.745 42.1569 65.745 41.7405C65.745 41.3303 66.0732 41.0019 66.4768 41.0019H66.4802ZM66.4763 41.1168C66.1517 41.1168 65.8857 41.3959 65.8857 41.741C65.8857 42.0921 66.1517 42.3682 66.4802 42.3682C66.8081 42.3716 67.0708 42.0921 67.0708 41.7441C67.0708 41.3964 66.8081 41.1168 66.4802 41.1168H66.4763ZM66.3385 42.1711H66.2076V41.3465C66.2763 41.3366 66.3419 41.3272 66.4402 41.3272C66.5655 41.3272 66.6472 41.353 66.6966 41.3894C66.7457 41.4258 66.7715 41.4814 66.7715 41.5602C66.7715 41.6684 66.7 41.7342 66.6115 41.7607V41.7672C66.6836 41.7805 66.733 41.8453 66.7489 41.9667C66.7686 42.0952 66.7884 42.1446 66.8016 42.1711H66.6638C66.644 42.1451 66.6238 42.0689 66.6081 41.9612C66.5884 41.8557 66.5361 41.8161 66.4303 41.8161H66.3387V42.1711H66.3385ZM66.3385 41.7144H66.4339C66.5416 41.7144 66.6339 41.6749 66.6339 41.5732C66.6339 41.5005 66.5812 41.4284 66.4339 41.4284C66.391 41.4284 66.3609 41.432 66.3385 41.4349V41.7144Z" fill="black"/>
</g>
<defs>
<clipPath id="clip0_440_2083">
<rect width="73" height="73" fill="white"/>
</clipPath>
</defs>
</svg>
