<svg width="54" height="54" viewBox="0 0 54 54" fill="none" xmlns="http://www.w3.org/2000/svg">
<path d="M37.5298 43.0422L36.126 41.0552L36.3666 40.8852L37.6196 42.6588L38.5433 42.0062L38.6941 42.2196L37.5298 43.0422ZM39.5126 41.6075C39.4245 41.6823 39.3304 41.7336 39.2303 41.7614C39.1298 41.7885 39.0315 41.7884 38.9354 41.7608C38.8388 41.7327 38.7521 41.6733 38.6752 41.5828C38.6076 41.5031 38.5684 41.4251 38.5578 41.349C38.5467 41.2722 38.5553 41.1973 38.5838 41.1244C38.6122 41.0514 38.6522 40.9811 38.7038 40.9134C38.7556 40.8446 38.8101 40.7785 38.8676 40.7152C38.9429 40.6326 39.0045 40.5663 39.0524 40.5163C39.1004 40.4652 39.1306 40.4224 39.143 40.388C39.1559 40.3531 39.1478 40.3185 39.1186 40.284L39.1125 40.2768C39.0366 40.1874 38.9532 40.1387 38.8623 40.1307C38.772 40.1222 38.6776 40.1597 38.5792 40.2433C38.4771 40.3299 38.4161 40.4201 38.396 40.514C38.376 40.6079 38.3757 40.6902 38.3952 40.7609L38.1308 40.8606C38.0953 40.7453 38.0878 40.6385 38.1082 40.5402C38.1287 40.4407 38.1669 40.3511 38.2229 40.2714C38.2789 40.1906 38.342 40.1205 38.412 40.061C38.4567 40.0231 38.5127 39.985 38.5798 39.9466C38.6471 39.9072 38.7218 39.8807 38.8038 39.8672C38.8864 39.8532 38.9738 39.8637 39.0659 39.8988C39.1579 39.9338 39.2509 40.0066 39.3447 40.1171L40.1226 41.0337L39.9088 41.2151L39.7489 41.0267L39.7381 41.036C39.7492 41.0784 39.7525 41.1312 39.7479 41.1944C39.7433 41.2575 39.7231 41.3249 39.6875 41.3968C39.6518 41.4686 39.5935 41.5388 39.5126 41.6075ZM39.3823 41.3878C39.4668 41.316 39.524 41.239 39.5537 41.1566C39.5841 41.0736 39.5918 40.9934 39.5768 40.9157C39.5624 40.8376 39.5306 40.7695 39.4814 40.7115L39.3154 40.5159C39.3156 40.5345 39.3041 40.5613 39.281 40.5965C39.258 40.6306 39.2293 40.6679 39.1951 40.7083C39.161 40.7477 39.1273 40.7857 39.0939 40.8223C39.0607 40.8578 39.0339 40.8867 39.0135 40.9092C38.9641 40.9636 38.9222 41.0195 38.8877 41.0768C38.8533 41.133 38.8349 41.1896 38.8325 41.2467C38.8302 41.3027 38.852 41.3579 38.8982 41.4122C38.9612 41.4865 39.0363 41.5193 39.1236 41.5107C39.2109 41.501 39.2971 41.46 39.3823 41.3878ZM41.5734 40.5949C41.4808 40.6938 41.3885 40.7668 41.2965 40.8141C41.2051 40.8619 41.1166 40.8903 41.0312 40.8993C40.9469 40.9082 40.8686 40.9048 40.7964 40.8893L40.8346 40.6191C40.8762 40.6233 40.9259 40.6259 40.9836 40.6268C41.0419 40.6283 41.1057 40.6153 41.1748 40.5878C41.2451 40.5603 41.3178 40.5064 41.3931 40.426C41.4938 40.3185 41.5509 40.2054 41.5644 40.0868C41.5779 39.9681 41.5291 39.8568 41.4182 39.7528L41.1477 39.4995L41.1314 39.5168C41.1416 39.5546 41.1516 39.6041 41.1615 39.6654C41.1713 39.7256 41.166 39.7944 41.1455 39.8718C41.1251 39.9482 41.0742 40.0297 40.993 40.1164C40.8923 40.2239 40.7764 40.2966 40.6454 40.3345C40.515 40.3718 40.3779 40.3698 40.2343 40.3286C40.0912 40.2867 39.9502 40.2008 39.8115 40.0709C39.6751 39.9431 39.5788 39.8079 39.5226 39.6652C39.4658 39.5219 39.4497 39.3815 39.4744 39.244C39.4984 39.1059 39.563 38.9808 39.668 38.8687C39.7492 38.782 39.8281 38.7268 39.9047 38.703C39.9812 38.6781 40.0504 38.6691 40.1122 38.676C40.174 38.6818 40.2235 38.6881 40.2607 38.6947L40.2802 38.6739L40.0687 38.4757L40.2539 38.2781L41.6237 39.5612C41.7381 39.6684 41.8068 39.7816 41.8298 39.9008C41.8538 40.0199 41.8417 40.1388 41.7935 40.2575C41.7464 40.3761 41.673 40.4886 41.5734 40.5949ZM40.8352 39.9164C40.9121 39.8344 40.9582 39.7474 40.9737 39.6556C40.9892 39.5637 40.9755 39.4701 40.9326 39.3745C40.8897 39.279 40.8191 39.1852 40.7209 39.0932C40.6249 39.0033 40.5267 38.9384 40.4262 38.8986C40.3258 38.8587 40.2282 38.8476 40.1335 38.8653C40.0388 38.8829 39.9525 38.9334 39.8746 39.0166C39.7934 39.1033 39.7476 39.1961 39.7374 39.2951C39.7277 39.3934 39.7464 39.4917 39.7933 39.5899C39.8407 39.6875 39.9095 39.7786 39.9997 39.8631C40.0922 39.9497 40.1875 40.0118 40.2857 40.0495C40.3838 40.0861 40.4799 40.0947 40.574 40.0754C40.668 40.055 40.7551 40.002 40.8352 39.9164ZM42.4429 38.5211C42.3427 38.6519 42.2237 38.7428 42.0858 38.7938C41.9485 38.8442 41.8026 38.8543 41.6484 38.8239C41.4945 38.7929 41.3428 38.7201 41.1932 38.6054C41.0423 38.4899 40.9315 38.3616 40.8608 38.2207C40.7907 38.0792 40.762 37.9356 40.7749 37.7898C40.7883 37.6434 40.845 37.5048 40.9452 37.3741C41.0453 37.2433 41.1641 37.1527 41.3015 37.1023C41.4393 37.0512 41.5855 37.0415 41.7399 37.073C41.8948 37.1038 42.0477 37.177 42.1986 37.2926C42.3483 37.4072 42.4579 37.535 42.5274 37.6761C42.5974 37.8165 42.6258 37.9599 42.6124 38.1063C42.5995 38.2521 42.543 38.3903 42.4429 38.5211ZM42.2429 38.368C42.319 38.2686 42.3561 38.1674 42.3543 38.0643C42.3525 37.9611 42.3219 37.8624 42.2625 37.768C42.2031 37.6736 42.125 37.5893 42.0282 37.5152C41.9313 37.441 41.8293 37.3873 41.7221 37.3541C41.6149 37.3209 41.5109 37.3166 41.4103 37.3412C41.3096 37.3659 41.2212 37.4279 41.1451 37.5272C41.069 37.6265 41.0322 37.728 41.0347 37.8316C41.0371 37.9353 41.0683 38.0345 41.1284 38.1293C41.1884 38.2242 41.2668 38.3087 41.3636 38.3829C41.4605 38.457 41.5622 38.5105 41.6688 38.5432C41.7754 38.576 41.8787 38.5798 41.9787 38.5547C42.0788 38.5295 42.1668 38.4673 42.2429 38.368ZM42.6605 35.5931L42.5898 35.8451C42.5458 35.8367 42.4988 35.8353 42.4489 35.841C42.3987 35.8456 42.3488 35.8633 42.2993 35.8943C42.2497 35.9252 42.2036 35.9754 42.161 36.045C42.1027 36.1403 42.0761 36.2331 42.0811 36.3234C42.0859 36.4127 42.1217 36.4778 42.1885 36.5188C42.248 36.5551 42.3082 36.5623 42.3691 36.5401C42.43 36.518 42.5 36.468 42.5792 36.3902L42.7774 36.194C42.8964 36.0755 43.0115 36.0035 43.1228 35.9778C43.2335 35.9518 43.3432 35.9721 43.452 36.0387C43.5411 36.0932 43.6051 36.1677 43.6439 36.262C43.6831 36.3557 43.6951 36.4605 43.6798 36.5765C43.6645 36.6925 43.6198 36.811 43.5458 36.9319C43.4486 37.0906 43.3338 37.2009 43.2012 37.2627C43.0686 37.3245 42.9276 37.3288 42.7783 37.2754L42.8605 37.0137C42.9575 37.0434 43.0453 37.041 43.124 37.0065C43.2031 36.9714 43.2726 36.9048 43.3326 36.8069C43.4008 36.6955 43.4314 36.5925 43.4242 36.498C43.4168 36.4025 43.3796 36.3342 43.3128 36.2933C43.2587 36.2602 43.2019 36.2514 43.1423 36.2669C43.082 36.282 43.0187 36.3231 42.9525 36.3903L42.7329 36.6125C42.6119 36.7343 42.4954 36.8069 42.3836 36.8304C42.2715 36.8527 42.1617 36.831 42.0543 36.7653C41.9665 36.7115 41.9039 36.6393 41.8666 36.5487C41.8296 36.4573 41.8182 36.357 41.8322 36.2476C41.8466 36.1376 41.8873 36.0279 41.9543 35.9185C42.0486 35.7645 42.1564 35.6643 42.2777 35.6178C42.3994 35.5707 42.527 35.5624 42.6605 35.5931ZM43.422 33.0079C43.3056 32.9743 43.197 32.9912 43.0963 33.0588C42.9956 33.1264 42.9167 33.2281 42.8595 33.3638C42.8177 33.463 42.7971 33.5567 42.7978 33.6446C42.7989 33.7319 42.8187 33.8081 42.8574 33.8734C42.8964 33.938 42.9516 33.9853 43.0231 34.0155C43.083 34.0407 43.1404 34.0481 43.1955 34.0378C43.2501 34.0265 43.3012 34.0042 43.3487 33.9709C43.3955 33.9374 43.4385 33.8996 43.4777 33.8577C43.5161 33.8154 43.5496 33.7758 43.578 33.7388L43.7353 33.537C43.7752 33.4851 43.8238 33.429 43.8809 33.3689C43.9384 33.308 44.0043 33.2546 44.0787 33.2086C44.1527 33.1616 44.2348 33.1317 44.3252 33.1191C44.4156 33.1065 44.5134 33.1224 44.6185 33.1667C44.7396 33.2177 44.8357 33.2956 44.9067 33.4003C44.9781 33.5043 45.017 33.629 45.0236 33.7745C45.0305 33.9192 44.9977 34.0776 44.9251 34.2499C44.8574 34.4104 44.7729 34.5385 44.6716 34.6342C44.5706 34.7291 44.4596 34.7906 44.3386 34.8187C44.2179 34.846 44.0944 34.8383 43.9681 34.7953L44.0862 34.5151C44.174 34.5435 44.256 34.5446 44.3324 34.5183C44.4084 34.491 44.476 34.4447 44.5353 34.3795C44.5942 34.3132 44.6424 34.2356 44.6799 34.1465C44.7236 34.0429 44.746 33.9428 44.7472 33.8462C44.7477 33.7492 44.7277 33.6639 44.6875 33.5902C44.6465 33.5162 44.5851 33.462 44.5034 33.4275C44.4289 33.3962 44.3596 33.3914 44.2953 33.4133C44.2311 33.4353 44.1701 33.474 44.1123 33.5296C44.0545 33.5851 43.998 33.6477 43.9429 33.7173L43.7478 33.9599C43.6237 34.1139 43.4933 34.2222 43.3569 34.285C43.2204 34.3478 43.0766 34.3474 42.9255 34.2837C42.8 34.2308 42.7049 34.1507 42.64 34.0435C42.5748 33.9352 42.5406 33.8125 42.5374 33.6754C42.5337 33.5372 42.5621 33.3966 42.6224 33.2535C42.6833 33.109 42.7633 32.9915 42.8625 32.901C42.9609 32.8101 43.0685 32.7506 43.1852 32.7224C43.3023 32.6936 43.4181 32.7011 43.5328 32.7452L43.422 33.0079ZM43.924 31.6179L44.1496 31.6926L43.8523 32.5902L43.6268 32.5156L43.924 31.6179ZM43.2984 32.1165L43.3865 31.8504L45.0375 32.3971C45.1127 32.422 45.1727 32.4298 45.2175 32.4204C45.2618 32.41 45.2961 32.3897 45.3203 32.3593C45.344 32.328 45.3624 32.2928 45.3753 32.2537C45.385 32.2244 45.3915 32.1998 45.3947 32.18C45.3972 32.16 45.3992 32.1439 45.4006 32.1319L45.6576 32.157C45.6584 32.1772 45.6569 32.2047 45.6529 32.2392C45.6497 32.274 45.6399 32.3163 45.6235 32.3659C45.5986 32.4411 45.558 32.5094 45.5018 32.5709C45.4458 32.6316 45.3769 32.6747 45.2951 32.7001C45.2135 32.7248 45.1223 32.7205 45.0216 32.6871L43.2984 32.1165ZM45.9522 31.2085C45.9258 31.3211 45.8806 31.4182 45.8166 31.5C45.7519 31.5816 45.6727 31.6399 45.5791 31.6749C45.4847 31.7097 45.3797 31.7135 45.264 31.6863C45.1623 31.6624 45.0845 31.623 45.0307 31.568C44.9761 31.5129 44.9386 31.4476 44.9181 31.372C44.8976 31.2964 44.888 31.216 44.8893 31.1309C44.89 31.0448 44.8946 30.9593 44.9032 30.8743C44.9147 30.7631 44.9248 30.6731 44.9336 30.6044C44.9418 30.5348 44.9407 30.4824 44.9302 30.4474C44.9199 30.4116 44.8928 30.3886 44.8488 30.3783L44.8396 30.3761C44.7255 30.3493 44.6295 30.3597 44.5516 30.4073C44.4739 30.4541 44.4203 30.5404 44.3908 30.6661C44.3602 30.7964 44.3647 30.9052 44.4044 30.9926C44.444 31.08 44.4927 31.1464 44.5504 31.1917L44.3971 31.429C44.3 31.3574 44.2304 31.276 44.1884 31.1847C44.1458 31.0926 44.1233 30.9978 44.121 30.9004C44.118 30.8021 44.127 30.7082 44.148 30.6188C44.1614 30.5618 44.1838 30.4979 44.215 30.4271C44.2457 30.3554 44.29 30.2897 44.3479 30.2301C44.4061 30.1697 44.4826 30.1263 44.5775 30.0998C44.6724 30.0732 44.7904 30.0766 44.9315 30.1097L46.1018 30.3846L46.0377 30.6575L45.7972 30.601L45.7939 30.6149C45.8281 30.6424 45.8621 30.683 45.8959 30.7365C45.9297 30.79 45.9536 30.8562 45.9676 30.9351C45.9816 31.0141 45.9765 31.1052 45.9522 31.2085ZM45.7168 31.1093C45.7422 31.0014 45.7423 30.9054 45.7173 30.8214C45.6925 30.7367 45.651 30.6675 45.5928 30.614C45.5347 30.5597 45.4687 30.5239 45.3947 30.5065L45.1449 30.4478C45.1561 30.4626 45.1628 30.4911 45.1651 30.5331C45.1669 30.5742 45.166 30.6212 45.1625 30.674C45.1585 30.726 45.1539 30.7766 45.1489 30.8258C45.1432 30.8741 45.1389 30.9134 45.1359 30.9436C45.1284 31.0167 45.1279 31.0865 45.1342 31.1531C45.14 31.2187 45.1588 31.2752 45.1908 31.3225C45.2222 31.369 45.2726 31.4003 45.342 31.4166C45.4368 31.4389 45.5168 31.4207 45.5818 31.3619C45.6463 31.3022 45.6913 31.218 45.7168 31.1093ZM44.5111 28.7825L44.7464 28.8149L44.6173 29.7517L44.3819 29.7192L44.5111 28.7825ZM43.9865 29.3865L44.0248 29.1087L45.7476 29.3463C45.8261 29.3571 45.8865 29.3539 45.9289 29.3365C45.9706 29.3183 46.0006 29.292 46.0189 29.2578C46.0365 29.2226 46.0481 29.1847 46.0538 29.1439C46.058 29.1133 46.0599 29.088 46.0594 29.0679C46.0582 29.0478 46.0573 29.0316 46.0565 29.0195L46.3138 28.9975C46.3183 29.0173 46.3217 29.0445 46.3241 29.0792C46.3273 29.114 46.3253 29.1573 46.3182 29.2091C46.3074 29.2876 46.2799 29.3621 46.2358 29.4328C46.1918 29.5027 46.1318 29.5576 46.056 29.5975C45.9802 29.6366 45.8898 29.6489 45.7847 29.6344L43.9865 29.3865ZM46.4518 27.8051C46.4404 27.9806 46.3918 28.1294 46.3061 28.2516C46.2196 28.3729 46.1042 28.4635 45.9599 28.5231C45.8148 28.5819 45.649 28.6053 45.4625 28.5932C45.276 28.5811 45.1138 28.5364 44.9759 28.4592C44.8374 28.3811 44.7322 28.2782 44.6603 28.1506C44.5877 28.022 44.5567 27.8756 44.5674 27.7112C44.5736 27.6164 44.5955 27.5237 44.6331 27.4333C44.6707 27.3429 44.7276 27.2621 44.8036 27.1909C44.8789 27.1196 44.9761 27.0652 45.0952 27.0277C45.2143 26.9902 45.3588 26.9769 45.5287 26.988L45.6472 26.9957L45.556 28.3993L45.3142 28.3835L45.3869 27.2645C45.2842 27.2578 45.1912 27.2724 45.1079 27.3082C45.0247 27.3433 44.9573 27.3969 44.9058 27.4689C44.8543 27.5402 44.8253 27.6264 44.8187 27.7275C44.8115 27.839 44.8329 27.9372 44.8829 28.0222C44.9322 28.1063 44.9993 28.173 45.0842 28.2222C45.1691 28.2713 45.2617 28.2992 45.3621 28.3057L45.5233 28.3162C45.6608 28.3251 45.7789 28.309 45.8777 28.2678C45.9756 28.2257 46.0523 28.1637 46.1076 28.0815C46.1622 27.9994 46.1931 27.9018 46.2004 27.7888C46.2052 27.7153 46.1993 27.6482 46.1826 27.5876C46.1651 27.5262 46.1369 27.4723 46.0978 27.4262C46.058 27.3799 46.0072 27.3429 45.9455 27.3151L46.039 27.0497C46.1288 27.0841 46.2063 27.1372 46.2715 27.2089C46.3359 27.2805 46.3842 27.367 46.4165 27.4683C46.448 27.5696 46.4598 27.6818 46.4518 27.8051ZM46.4487 25.5147L44.0274 25.7525L43.9471 24.9344C43.9284 24.7445 43.9474 24.5858 44.0042 24.4585C44.06 24.3305 44.143 24.2316 44.2531 24.1619C44.3633 24.0922 44.4897 24.0503 44.6323 24.0363C44.775 24.0223 44.9075 24.0387 45.0299 24.0856C45.1522 24.1317 45.2539 24.2116 45.3351 24.3254C45.4156 24.4392 45.465 24.5903 45.4835 24.7787L45.5411 25.3651L45.281 25.3907L45.2244 24.8137C45.2116 24.6837 45.1789 24.5815 45.1262 24.507C45.0735 24.4326 45.0072 24.3815 44.9273 24.3535C44.8465 24.3248 44.7576 24.3153 44.6607 24.3248C44.5637 24.3343 44.4788 24.361 44.4059 24.4047C44.3329 24.4477 44.2787 24.5111 44.2432 24.595C44.2068 24.6789 44.1952 24.7867 44.2081 24.9183L44.2587 25.4338L46.4199 25.2215L46.4487 25.5147ZM43.7747 23.5144L46.1722 23.1007L46.2199 23.377L43.8224 23.7907L43.7747 23.5144ZM45.9686 22.001C45.9963 22.1132 46.0003 22.2203 45.9806 22.3223C45.9601 22.4244 45.9161 22.5123 45.8487 22.5861C45.7805 22.66 45.6887 22.7112 45.5733 22.7397C45.4719 22.7647 45.3846 22.765 45.3117 22.7406C45.238 22.7163 45.1749 22.6752 45.1222 22.6173C45.0696 22.5593 45.0245 22.4921 44.9869 22.4157C44.9483 22.3388 44.9135 22.2605 44.8824 22.1809C44.842 22.0767 44.8101 21.9919 44.7867 21.9268C44.7623 21.861 44.7375 21.8149 44.7122 21.7885C44.6867 21.7614 44.6521 21.7532 44.6083 21.764L44.599 21.7663C44.4852 21.7944 44.4045 21.8473 44.3568 21.9252C44.3089 22.0022 44.3005 22.1034 44.3314 22.2288C44.3634 22.3587 44.417 22.4536 44.4921 22.5133C44.5673 22.5731 44.6408 22.61 44.7128 22.6241L44.6843 22.9052C44.5652 22.8856 44.4663 22.8448 44.3873 22.7827C44.3074 22.72 44.2442 22.6459 44.1978 22.5603C44.1505 22.4741 44.1158 22.3864 44.0938 22.2972C44.0797 22.2403 44.0705 22.1732 44.0661 22.096C44.0608 22.0182 44.0704 21.9395 44.0948 21.8601C44.1191 21.7799 44.1674 21.7064 44.2398 21.6396C44.3123 21.5727 44.4188 21.522 44.5595 21.4873L45.7267 21.1993L45.7939 21.4715L45.554 21.5306L45.5574 21.5445C45.6004 21.5535 45.6491 21.5741 45.7036 21.6063C45.758 21.6385 45.8095 21.6866 45.8579 21.7505C45.9063 21.8145 45.9432 21.8979 45.9686 22.001ZM45.7139 22.0198C45.6873 21.9121 45.6438 21.8266 45.5833 21.7632C45.5226 21.6991 45.4541 21.6564 45.3779 21.6353C45.3016 21.6133 45.2265 21.6115 45.1526 21.6297L44.9035 21.6911C44.9202 21.6993 44.9391 21.7215 44.9604 21.7579C44.9806 21.7937 45.0012 21.8359 45.0222 21.8846C45.0422 21.9326 45.0612 21.9798 45.0791 22.0259C45.0961 22.0715 45.1101 22.1084 45.1211 22.1367C45.1478 22.2051 45.1791 22.2676 45.215 22.324C45.25 22.3798 45.2925 22.4215 45.3426 22.4491C45.3917 22.4761 45.4508 22.4811 45.52 22.4641C45.6146 22.4407 45.6775 22.3881 45.7087 22.3062C45.7389 22.2237 45.7406 22.1282 45.7139 22.0198ZM44.4359 20.7496L45.4703 20.3823L45.5641 20.6465L43.8447 21.2571L43.754 21.0019L44.0227 20.9065L44.0147 20.8841C43.9131 20.8748 43.8212 20.8385 43.7391 20.7752C43.6562 20.7122 43.5917 20.6158 43.5456 20.4859C43.5042 20.3695 43.4919 20.2592 43.5087 20.1549C43.5247 20.0509 43.5722 19.9575 43.6513 19.8748C43.7296 19.7924 43.8418 19.7252 43.9881 19.6732L45.0807 19.2852L45.1745 19.5494L44.0999 19.9311C43.9648 19.979 43.872 20.0515 43.8215 20.1484C43.7703 20.2456 43.7665 20.3554 43.8099 20.4778C43.8399 20.5621 43.8849 20.631 43.9451 20.6844C44.005 20.7371 44.0768 20.77 44.1604 20.7832C44.2441 20.7963 44.3359 20.7851 44.4359 20.7496ZM43.7514 18.9683L44.743 18.4976L44.8632 18.7509L43.2148 19.5334L43.0987 19.2887L43.3562 19.1664L43.3461 19.145C43.244 19.1461 43.1489 19.1193 43.0607 19.0647C42.9719 19.0105 42.8979 18.9211 42.8388 18.7966C42.7858 18.685 42.7624 18.5765 42.7684 18.4711C42.7737 18.366 42.8115 18.2682 42.8817 18.1779C42.9512 18.088 43.0561 18.0097 43.1963 17.9431L44.2437 17.4459L44.364 17.6992L43.3337 18.1882C43.2042 18.2497 43.1193 18.3312 43.079 18.4328C43.0379 18.5347 43.0453 18.6443 43.101 18.7616C43.1393 18.8425 43.1912 18.9064 43.2564 18.9534C43.3214 18.9997 43.3961 19.0252 43.4807 19.0298C43.5653 19.0343 43.6555 19.0138 43.7514 18.9683ZM43.9751 16.9347L42.4051 17.8645L42.2622 17.6232L43.8323 16.6935L43.9751 16.9347ZM42.0708 17.8968C42.0986 17.9438 42.1066 17.9938 42.0948 18.0468C42.0825 18.0992 42.0539 18.1387 42.0089 18.1653C41.9639 18.192 41.9156 18.1981 41.8638 18.1836C41.8116 18.1685 41.7715 18.1375 41.7437 18.0904C41.7158 18.0434 41.708 17.9937 41.7203 17.9414C41.7322 17.8883 41.7606 17.8485 41.8055 17.8219C41.8505 17.7952 41.8991 17.7895 41.9513 17.8046C42.0031 17.819 42.0429 17.8497 42.0708 17.8968ZM42.4573 16.5833L43.3677 15.9701L43.5243 16.2026L42.0109 17.2219L41.8596 16.9973L42.096 16.838L42.0828 16.8183C41.982 16.8346 41.884 16.8223 41.7887 16.7815C41.6927 16.7411 41.6063 16.6637 41.5293 16.5494C41.4603 16.447 41.4209 16.3432 41.4112 16.238C41.4008 16.1333 41.4236 16.031 41.4796 15.9312C41.5349 15.8319 41.6269 15.7389 41.7557 15.6522L42.7173 15.0045L42.8739 15.237L41.9281 15.8741C41.8092 15.9542 41.7373 16.0474 41.7126 16.1539C41.6872 16.2607 41.7107 16.368 41.7833 16.4758C41.8333 16.55 41.8941 16.6055 41.9656 16.6423C42.0368 16.6784 42.1145 16.6924 42.1988 16.6843C42.2831 16.6762 42.3692 16.6426 42.4573 16.5833ZM42.4537 13.5137C42.5407 13.6175 42.6022 13.7179 42.6381 13.8149C42.6746 13.9114 42.6921 14.0027 42.6908 14.0885C42.6895 14.1733 42.6768 14.2506 42.6527 14.3205L42.389 14.2501C42.3983 14.2093 42.4068 14.1603 42.4146 14.1031C42.4231 14.0454 42.4178 13.9805 42.3988 13.9086C42.3799 13.8355 42.3351 13.7568 42.2644 13.6725C42.1697 13.5596 42.0643 13.4893 41.9481 13.4617C41.832 13.4341 41.7156 13.4691 41.5991 13.5668L41.3151 13.8049L41.3303 13.8232C41.3691 13.8176 41.4194 13.8136 41.4815 13.8111C41.5424 13.8086 41.6101 13.8222 41.6845 13.8517C41.7578 13.8812 41.8326 13.9415 41.909 14.0325C42.0036 14.1454 42.0619 14.2691 42.0838 14.4037C42.1052 14.5377 42.0868 14.6735 42.0286 14.8112C41.9699 14.9483 41.8677 15.0779 41.7221 15.2C41.5789 15.3201 41.433 15.3995 41.2846 15.4382C41.1356 15.4773 40.9942 15.4765 40.8607 15.4355C40.7265 15.395 40.6101 15.3159 40.5113 15.1982C40.435 15.1072 40.3896 15.0222 40.3752 14.9434C40.3596 14.8645 40.359 14.7947 40.3733 14.7341C40.3865 14.6734 40.3987 14.625 40.4097 14.5889L40.3914 14.567L40.1693 14.7533L39.9953 14.5457L41.4335 13.3398C41.5537 13.239 41.6743 13.1844 41.7953 13.1759C41.9165 13.1663 42.0331 13.1926 42.1451 13.2547C42.2572 13.3157 42.3601 13.4021 42.4537 13.5137ZM41.6916 14.1652C41.6193 14.079 41.5385 14.0227 41.4492 13.9963C41.3599 13.9699 41.2652 13.9723 41.1652 14.0034C41.0653 14.0346 40.9637 14.0934 40.8605 14.1799C40.7598 14.2644 40.6836 14.3541 40.632 14.449C40.5803 14.544 40.5576 14.6395 40.5638 14.7357C40.57 14.8318 40.6097 14.9235 40.683 15.0109C40.7593 15.1019 40.8459 15.1585 40.943 15.1805C41.0395 15.2019 41.1393 15.1952 41.2424 15.1604C41.345 15.125 41.4436 15.0676 41.5383 14.9882C41.6354 14.9068 41.7086 14.8196 41.7578 14.7267C41.8058 14.6337 41.8259 14.5393 41.818 14.4436C41.809 14.3478 41.7669 14.255 41.6916 14.1652ZM39.9251 11.8417C40.0122 11.9177 40.0769 12.0032 40.1193 12.098C40.1611 12.1934 40.1755 12.2906 40.1626 12.3897C40.1491 12.4894 40.1033 12.584 40.0252 12.6735C39.9564 12.7522 39.8852 12.8025 39.8114 12.8243C39.7372 12.8468 39.6619 12.8493 39.5855 12.8321C39.5091 12.8148 39.4336 12.7856 39.359 12.7447C39.2833 12.7038 39.2098 12.6596 39.1387 12.6122C39.0458 12.55 38.9711 12.499 38.9145 12.459C38.8568 12.4192 38.81 12.3957 38.7742 12.3885C38.7377 12.3809 38.7047 12.3941 38.675 12.4281L38.6687 12.4353C38.5916 12.5235 38.5559 12.6132 38.5615 12.7043C38.5665 12.7949 38.6176 12.8827 38.7149 12.9676C38.8157 13.0556 38.914 13.1026 39.0098 13.1084C39.1056 13.1143 39.187 13.1023 39.2541 13.0725L39.392 13.3192C39.2833 13.3714 39.1788 13.3948 39.0785 13.3892C38.9771 13.3837 38.8828 13.3592 38.7957 13.3157C38.7074 13.2723 38.6287 13.2204 38.5595 13.16C38.5153 13.1214 38.4693 13.0718 38.4214 13.011C38.3724 12.9504 38.3351 12.8805 38.3096 12.8014C38.2834 12.7218 38.2808 12.6338 38.3018 12.5375C38.3228 12.4413 38.381 12.3385 38.4763 12.2294L39.267 11.3238L39.4782 11.5082L39.3157 11.6943L39.3264 11.7037C39.3668 11.6864 39.4185 11.6753 39.4816 11.6705C39.5447 11.6657 39.6144 11.6755 39.6907 11.7001C39.7671 11.7247 39.8452 11.7719 39.9251 11.8417ZM39.7273 12.0033C39.6437 11.9303 39.559 11.8853 39.4731 11.8681C39.3866 11.8504 39.3061 11.8547 39.2315 11.8811C39.1564 11.9069 39.0938 11.9485 39.0438 12.0057L38.875 12.199C38.8933 12.1961 38.9216 12.2034 38.9598 12.2211C38.997 12.2388 39.0381 12.2615 39.0832 12.2893C39.1272 12.3172 39.1697 12.3449 39.2109 12.3725C39.2509 12.4001 39.2836 12.4223 39.3088 12.4391C39.37 12.4798 39.4314 12.513 39.4932 12.5386C39.5539 12.5642 39.6126 12.574 39.6695 12.5679C39.7252 12.5619 39.7765 12.532 39.8234 12.4783C39.8875 12.405 39.9088 12.3258 39.8873 12.2408C39.8647 12.1559 39.8114 12.0767 39.7273 12.0033ZM37.9527 11.6987L38.5864 10.8024L38.8153 10.9642L37.762 12.4542L37.5408 12.2978L37.7054 12.065L37.686 12.0513C37.5976 12.1023 37.5016 12.1256 37.398 12.1212C37.2939 12.1175 37.1856 12.0758 37.0731 11.9963C36.9722 11.9249 36.8986 11.8418 36.8522 11.747C36.8053 11.6527 36.7904 11.5491 36.8073 11.4359C36.8238 11.3234 36.8768 11.2038 36.9665 11.0771L37.6358 10.1303L37.8647 10.2922L37.2064 11.2234C37.1236 11.3404 37.0895 11.4531 37.1041 11.5614C37.1183 11.6703 37.1784 11.7623 37.2845 11.8373C37.3575 11.8889 37.4341 11.9192 37.514 11.9282C37.5933 11.9368 37.671 11.9223 37.7469 11.8849C37.8229 11.8474 37.8915 11.7853 37.9527 11.6987ZM36.5655 9.45075C36.6983 9.5248 36.7969 9.62373 36.8611 9.74752C36.925 9.87201 36.9513 10.0118 36.9401 10.167C36.9285 10.3228 36.8756 10.4851 36.7815 10.6538C36.6881 10.8212 36.5784 10.9505 36.4524 11.0416C36.3263 11.1327 36.1934 11.1833 36.0536 11.1933C35.9138 11.2033 35.7768 11.1709 35.6426 11.096C35.5389 11.0382 35.4666 10.9752 35.4257 10.907C35.3837 10.8392 35.359 10.7746 35.3514 10.7133C35.3428 10.6523 35.3373 10.6029 35.3347 10.5652L35.314 10.5537L34.8766 11.3381L34.6317 11.2015L35.8166 9.07664L36.0532 9.20855L35.9166 9.45341L35.9457 9.46961C35.9799 9.45059 36.0259 9.4282 36.0838 9.40244C36.1413 9.37738 36.2105 9.36472 36.2913 9.36447C36.3718 9.3649 36.4632 9.39366 36.5655 9.45075ZM36.4097 9.65219C36.3115 9.59742 36.2142 9.57673 36.1179 9.59011C36.0212 9.60419 35.9297 9.64704 35.8435 9.71868C35.7569 9.791 35.6801 9.88734 35.613 10.0077C35.5466 10.1267 35.5059 10.2404 35.4907 10.3489C35.4751 10.4581 35.4874 10.5565 35.5274 10.6441C35.567 10.7324 35.6366 10.8043 35.7362 10.8599C35.84 10.9177 35.9413 10.9393 36.0402 10.9246C36.138 10.9102 36.2294 10.8674 36.3145 10.7961C36.3986 10.725 36.4718 10.6335 36.5343 10.5215C36.5976 10.408 36.6377 10.2953 36.6548 10.1833C36.6709 10.0717 36.6599 9.96943 36.6219 9.8766C36.5828 9.78408 36.5121 9.70928 36.4097 9.65219ZM34.3048 8.38641L33.4581 10.6672L32.0816 10.1562L32.1726 9.91122L33.2729 10.3197L33.559 9.54902L32.5299 9.16701L32.6209 8.922L33.6499 9.30401L33.9377 8.52889L32.8196 8.1138L32.9105 7.86879L34.3048 8.38641ZM31.8523 8.69955L32.1263 7.63664L32.3978 7.70663L31.9423 9.47354L31.68 9.40592L31.7512 9.12984L31.7281 9.12391C31.6636 9.20296 31.5821 9.25883 31.4837 9.29154C31.3851 9.325 31.2691 9.32453 31.1357 9.29013C31.0161 9.25929 30.9177 9.20776 30.8406 9.13555C30.7634 9.0641 30.7126 8.97249 30.6882 8.86071C30.6637 8.74969 30.6708 8.61903 30.7095 8.46872L30.999 7.346L31.2705 7.41599L30.9858 8.52031C30.95 8.65912 30.9581 8.77654 31.0103 8.87258C31.0622 8.96939 31.151 9.034 31.2768 9.06643C31.3634 9.08877 31.4457 9.08995 31.5237 9.06997C31.6009 9.04979 31.6683 9.0087 31.726 8.9467C31.7837 8.88469 31.8258 8.80231 31.8523 8.69955ZM28.7461 8.81976L29.6905 7.11895L29.9723 7.16232L30.3617 9.06841L30.0611 9.02215L29.7844 7.50841L29.7657 7.50551L29.0466 8.86602L28.7461 8.81976ZM28.592 6.96522L28.4215 8.78192L28.1424 8.75573L28.3128 6.93902L28.592 6.96522ZM28.2511 9.07139C28.3055 9.07649 28.3507 9.09943 28.3867 9.14018C28.4218 9.18087 28.437 9.22723 28.4321 9.27927C28.4272 9.33131 28.4037 9.37405 28.3616 9.40749C28.3187 9.44085 28.27 9.45497 28.2156 9.44987C28.1612 9.44476 28.1164 9.42187 28.0813 9.38118C28.0453 9.34042 28.0298 9.29402 28.0347 9.24198C28.0396 9.18994 28.0635 9.14724 28.1064 9.11388C28.1485 9.08045 28.1967 9.06628 28.2511 9.07139ZM27.7347 6.90312L27.694 8.72736L27.4232 8.72131L27.4294 8.44578L27.4104 8.44535C27.3751 8.53487 27.3133 8.60677 27.225 8.66104C27.1366 8.71531 27.0378 8.74123 26.9285 8.73879C26.908 8.73833 26.8822 8.73736 26.8514 8.73588C26.8205 8.7344 26.7972 8.73269 26.7814 8.73075L26.7877 8.44571C26.7972 8.4483 26.8189 8.45235 26.8528 8.45786C26.886 8.46414 26.9211 8.4677 26.9583 8.46853C27.047 8.47051 27.1266 8.45367 27.1971 8.41802C27.2668 8.38313 27.3226 8.33368 27.3644 8.26965C27.4054 8.20641 27.4269 8.13361 27.4287 8.05126L27.4545 6.89687L27.7347 6.90312ZM25.7371 6.89778C25.9016 6.88871 26.0481 6.9199 26.1765 6.99134C26.3042 7.06283 26.4067 7.16704 26.4841 7.30396C26.5606 7.44092 26.6041 7.60351 26.6144 7.79171C26.6249 7.98149 26.5996 8.14905 26.5386 8.29439C26.4768 8.43977 26.3864 8.55501 26.2674 8.64009C26.1476 8.72522 26.0054 8.77231 25.8409 8.78138C25.6764 8.79044 25.5304 8.75923 25.4027 8.68774C25.2742 8.6163 25.1717 8.5117 25.0951 8.37395C25.0177 8.23623 24.9738 8.07249 24.9633 7.8827C24.953 7.6945 24.9787 7.52811 25.0405 7.38351C25.1015 7.23897 25.192 7.12413 25.3118 7.039C25.4309 6.95392 25.5726 6.90684 25.7371 6.89778ZM25.751 7.14924C25.626 7.15613 25.525 7.19382 25.4479 7.26231C25.3707 7.33081 25.3157 7.41832 25.2827 7.52483C25.2497 7.63135 25.2365 7.7455 25.2433 7.86728C25.25 7.98905 25.2756 8.10146 25.3201 8.2045C25.3647 8.30753 25.4291 8.38925 25.5133 8.44965C25.5975 8.51005 25.7021 8.5368 25.8271 8.52992C25.952 8.52303 26.053 8.48494 26.1301 8.41565C26.2072 8.34637 26.2622 8.25807 26.2951 8.15076C26.3281 8.04345 26.3412 7.92891 26.3345 7.80713C26.3278 7.68536 26.3022 7.57335 26.2577 7.4711C26.2132 7.36885 26.1488 7.28793 26.0647 7.22832C25.9805 7.16871 25.8759 7.14235 25.751 7.14924ZM24.3207 8.16303L24.1471 7.07918L24.4239 7.03484L24.7125 8.83656L24.445 8.8794L24.4 8.59788L24.3765 8.60164C24.3489 8.6999 24.2966 8.78368 24.2194 8.85298C24.1424 8.92306 24.0359 8.969 23.8998 8.99079C23.7778 9.01033 23.6671 9.0024 23.5676 8.96701C23.4682 8.9324 23.385 8.86873 23.318 8.77599C23.2512 8.68404 23.2055 8.56143 23.1809 8.40815L22.9975 7.26331L23.2744 7.21897L23.4547 8.34505C23.4774 8.48659 23.5318 8.59096 23.618 8.65817C23.7043 8.72616 23.8115 8.74988 23.9398 8.72934C24.0281 8.71519 24.1041 8.68338 24.1675 8.63391C24.2302 8.58457 24.2756 8.51995 24.3037 8.44006C24.3318 8.36016 24.3375 8.26782 24.3207 8.16303ZM22.4344 7.38841L22.9623 9.13506L22.703 9.21342L22.6205 8.94051L22.5978 8.94738C22.5896 9.05163 22.5527 9.14178 22.4872 9.21785C22.4219 9.29467 22.3324 9.35027 22.2187 9.38464C22.1034 9.41947 21.9996 9.4223 21.9072 9.39313C21.8143 9.36495 21.7322 9.31077 21.6608 9.23059L21.6426 9.23609C21.6251 9.33982 21.5797 9.43174 21.5063 9.51184C21.4331 9.5927 21.334 9.65204 21.2089 9.68984C21.0527 9.73704 20.9102 9.72676 20.7813 9.65898C20.6527 9.59196 20.5573 9.45573 20.4952 9.25028L20.1419 8.0813L20.4103 8.00019L20.7636 9.16917C20.8025 9.29805 20.8656 9.3795 20.9529 9.41353C21.0401 9.44756 21.1315 9.45014 21.227 9.42127C21.3498 9.38415 21.4337 9.31825 21.4787 9.22357C21.524 9.12964 21.5295 9.0262 21.4954 8.91324L21.1517 7.7761L21.4246 7.69361L21.7862 8.88988C21.8162 8.98919 21.8726 9.05944 21.9553 9.10061C22.0383 9.14254 22.1306 9.14815 22.2322 9.11745C22.302 9.09637 22.3615 9.05809 22.411 9.00261C22.4596 8.94736 22.4926 8.88115 22.5098 8.80397C22.5265 8.72777 22.5219 8.64684 22.496 8.56118L22.166 7.46952L22.4344 7.38841ZM18.8858 8.54944C19.0467 8.47877 19.2012 8.45335 19.3492 8.47316C19.4967 8.49402 19.6302 8.55478 19.7496 8.65544C19.8687 8.75715 19.9657 8.89357 20.0409 9.06471C20.116 9.23585 20.151 9.40037 20.1459 9.55828C20.1405 9.71723 20.0976 9.858 20.0174 9.98058C19.9367 10.1042 19.821 10.1991 19.6701 10.2653C19.5831 10.3035 19.4908 10.3268 19.3932 10.335C19.2956 10.3432 19.1977 10.33 19.0995 10.2953C19.0015 10.2613 18.9085 10.2001 18.8203 10.1116C18.7322 10.0232 18.6539 9.901 18.5855 9.74509L18.5377 9.63632L19.8256 9.07096L19.9231 9.29286L18.8962 9.74362C18.9376 9.83789 18.9934 9.91374 19.0636 9.97115C19.133 10.0289 19.2116 10.064 19.2992 10.0766C19.3862 10.0894 19.4761 10.0755 19.5689 10.0347C19.6711 9.98985 19.7485 9.92564 19.8009 9.84209C19.8529 9.75958 19.8812 9.66932 19.8857 9.57132C19.8903 9.47332 19.8723 9.37827 19.8319 9.28617L19.767 9.13824C19.7116 9.01206 19.6429 8.91465 19.5608 8.846C19.4784 8.7784 19.388 8.73894 19.2896 8.72764C19.1916 8.71706 19.0907 8.73453 18.987 8.78005C18.9195 8.80965 18.8628 8.84582 18.8167 8.88855C18.7701 8.93232 18.7354 8.98218 18.7124 9.03812C18.6897 9.09479 18.6802 9.1569 18.6839 9.22447L18.4053 9.26372C18.3945 9.16814 18.4059 9.07491 18.4395 8.98404C18.4735 8.89389 18.528 8.81116 18.603 8.73583C18.6784 8.66123 18.7726 8.5991 18.8858 8.54944ZM18.0686 10.2019L17.5274 9.24693L17.7713 9.1087L18.6709 10.6962L18.4353 10.8297L18.2947 10.5817L18.274 10.5934C18.2825 10.6951 18.2627 10.7919 18.2146 10.8838C18.167 10.9763 18.0832 11.0566 17.9633 11.1245C17.8558 11.1854 17.7493 11.2167 17.6437 11.2183C17.5384 11.2205 17.4383 11.1899 17.3431 11.1264C17.2483 11.0636 17.1627 10.9647 17.0862 10.8296L16.5145 9.82092L16.7584 9.6827L17.3207 10.6749C17.3914 10.7996 17.4788 10.8784 17.583 10.9113C17.6876 10.9448 17.7964 10.9296 17.9094 10.8656C17.9873 10.8215 18.0473 10.7651 18.0895 10.6966C18.131 10.6285 18.1509 10.5521 18.1494 10.4674C18.1478 10.3827 18.1209 10.2942 18.0686 10.2019ZM16.3983 12.0779L16.2643 11.8817L17.045 11.3482L17.179 11.5443L16.3983 12.0779ZM17.1982 12.0608L16.9667 12.219L15.9854 10.7831C15.9407 10.7177 15.8977 10.6752 15.8564 10.6554C15.8149 10.6368 15.7753 10.6322 15.7376 10.6416C15.6997 10.6522 15.6638 10.6691 15.6298 10.6923C15.6043 10.7097 15.5843 10.7253 15.5697 10.7391C15.5556 10.7536 15.5443 10.7651 15.5359 10.7738L15.3467 10.598C15.3583 10.5814 15.3762 10.5606 15.4003 10.5355C15.424 10.5097 15.4574 10.4821 15.5005 10.4526C15.5659 10.4079 15.6396 10.3782 15.7216 10.3634C15.8029 10.3491 15.8838 10.3566 15.9643 10.386C16.0442 10.4158 16.1141 10.4745 16.174 10.5622L17.1982 12.0608ZM14.536 11.1693C14.6257 11.0963 14.7208 11.047 14.8214 11.0212C14.9225 10.9961 15.0208 10.9983 15.1163 11.0278C15.2123 11.0579 15.2978 11.1191 15.3728 11.2112C15.4388 11.2923 15.4763 11.371 15.4853 11.4473C15.4949 11.5243 15.4847 11.599 15.4548 11.6713C15.4248 11.7437 15.3834 11.8132 15.3304 11.8798C15.2773 11.9476 15.2214 12.0125 15.1626 12.0746C15.0857 12.1556 15.0227 12.2207 14.9738 12.2697C14.9247 12.3198 14.8937 12.362 14.8806 12.3961C14.8669 12.4307 14.8743 12.4655 14.9028 12.5005L14.9088 12.5079C14.9828 12.5988 15.0652 12.6492 15.1559 12.6591C15.2461 12.6694 15.3412 12.6339 15.4413 12.5524C15.5451 12.4679 15.608 12.3789 15.6299 12.2855C15.6519 12.192 15.6539 12.1097 15.6358 12.0386L15.9022 11.9444C15.9353 12.0603 15.9407 12.1673 15.9183 12.2652C15.8957 12.3642 15.8557 12.453 15.7981 12.5315C15.7404 12.6112 15.6759 12.68 15.6047 12.738C15.5592 12.775 15.5025 12.812 15.4345 12.8489C15.3665 12.887 15.2913 12.9119 15.209 12.9237C15.1261 12.9361 15.039 12.9238 14.9477 12.8868C14.8563 12.8499 14.7649 12.7752 14.6734 12.6628L13.9144 11.7304L14.1319 11.5535L14.2878 11.7451L14.2989 11.7361C14.2886 11.6934 14.2865 11.6405 14.2924 11.5775C14.2983 11.5145 14.3198 11.4475 14.3569 11.3764C14.394 11.3053 14.4537 11.2363 14.536 11.1693ZM14.6618 11.3916C14.5759 11.4616 14.5171 11.5375 14.4857 11.6193C14.4536 11.7016 14.4443 11.7817 14.4577 11.8596C14.4704 11.938 14.5008 12.0067 14.5488 12.0657L14.7108 12.2647C14.711 12.2461 14.7231 12.2195 14.7469 12.1848C14.7706 12.1512 14.8 12.1145 14.835 12.0748C14.8699 12.0361 14.9044 11.9989 14.9385 11.9629C14.9725 11.9281 14.9999 11.8997 15.0207 11.8776C15.0712 11.8243 15.1143 11.7693 15.1499 11.7127C15.1854 11.6572 15.205 11.601 15.2086 11.5439C15.2121 11.488 15.1913 11.4324 15.1463 11.3771C15.0848 11.3016 15.0104 11.2672 14.923 11.274C14.8355 11.2819 14.7484 11.3211 14.6618 11.3916ZM14.929 14.0802L13.273 12.2979L13.4783 12.1071L15.1344 13.8894L14.929 14.0802ZM14.0683 14.9824L13.8507 15.2586L11.7527 14.6582L11.735 14.6806L12.8096 16.5799L12.592 16.8561L10.681 15.3504L10.8515 15.1339L12.3035 16.2779L12.3182 16.2592L11.3368 14.5181L11.5014 14.309L13.4239 14.8558L13.4386 14.8371L11.9867 13.6932L12.1572 13.4767L14.0683 14.9824ZM9.91653 16.4712C10.0006 16.3296 10.1081 16.2253 10.239 16.1584C10.3695 16.0922 10.5132 16.0651 10.6699 16.0772C10.8263 16.0899 10.9856 16.1444 11.1476 16.2406C11.3111 16.3376 11.4362 16.452 11.5229 16.5836C11.6092 16.7159 11.6545 16.8552 11.6589 17.0014C11.6628 17.1484 11.6227 17.2927 11.5386 17.4343C11.4545 17.5759 11.3472 17.6799 11.2168 17.7461C11.0859 17.813 10.9419 17.8398 10.7848 17.8267C10.6273 17.8143 10.4669 17.7595 10.3034 17.6625C10.1414 17.5663 10.0175 17.4522 9.93188 17.3203C9.84584 17.1891 9.80085 17.05 9.7969 16.9031C9.79256 16.7568 9.83244 16.6129 9.91653 16.4712ZM10.1331 16.5998C10.0692 16.7074 10.0442 16.8123 10.0581 16.9145C10.0721 17.0167 10.1141 17.1112 10.1841 17.1979C10.2542 17.2847 10.3417 17.3592 10.4466 17.4214C10.5514 17.4837 10.6591 17.525 10.7694 17.5454C10.8798 17.5658 10.9836 17.5579 11.0806 17.5216C11.1777 17.4853 11.2582 17.4133 11.3221 17.3057C11.386 17.1981 11.4106 17.093 11.396 16.9904C11.3814 16.8878 11.3387 16.7929 11.268 16.7058C11.1972 16.6186 11.1094 16.5439 11.0045 16.4817C10.8996 16.4194 10.7924 16.3783 10.6827 16.3583C10.573 16.3383 10.4699 16.3466 10.3735 16.3833C10.2771 16.42 10.197 16.4922 10.1331 16.5998ZM10.1774 18.3531L9.18096 17.8928L9.29852 17.6383L10.955 18.4035L10.8414 18.6494L10.5826 18.5298L10.5726 18.5514C10.6388 18.6291 10.6792 18.7192 10.6937 18.8219C10.7089 18.9249 10.6877 19.039 10.6299 19.1641C10.5781 19.2762 10.5097 19.3637 10.4248 19.4266C10.3407 19.4898 10.2415 19.5233 10.1271 19.5272C10.0135 19.5314 9.88624 19.501 9.74532 19.4359L8.69276 18.9497L8.81032 18.6952L9.84563 19.1734C9.97577 19.2335 10.0928 19.2466 10.1966 19.2125C10.3011 19.1788 10.3806 19.103 10.4351 18.9851C10.4726 18.9039 10.4886 18.8231 10.4829 18.7429C10.4769 18.6633 10.4486 18.5896 10.3979 18.5217C10.3473 18.4538 10.2738 18.3976 10.1774 18.3531ZM8.4707 19.4829L10.1867 20.1032L10.0914 20.3668L8.3754 19.7466L8.4707 19.4829ZM10.4243 20.3406C10.4429 20.2892 10.4764 20.2512 10.5249 20.2266C10.573 20.2028 10.6217 20.1997 10.6709 20.2175C10.72 20.2353 10.7555 20.2687 10.7773 20.3179C10.7989 20.3678 10.8004 20.4184 10.7818 20.4698C10.7632 20.5212 10.7298 20.5588 10.6816 20.5827C10.6332 20.6073 10.5844 20.6107 10.5352 20.5929C10.4861 20.5751 10.4507 20.5413 10.4292 20.4914C10.4073 20.4423 10.4057 20.392 10.4243 20.3406ZM9.66768 21.6208L9.44214 21.5461L9.73941 20.6485L9.96495 20.7232L9.66768 21.6208ZM10.2933 21.1222L10.2052 21.3884L8.55419 20.8416C8.47901 20.8167 8.41902 20.809 8.37421 20.8183C8.3299 20.8287 8.29563 20.849 8.27139 20.8794C8.24766 20.9107 8.22933 20.946 8.21638 20.985C8.20667 21.0144 8.20021 21.0389 8.19699 21.0587C8.19452 21.0788 8.19255 21.0948 8.19107 21.1068L7.93407 21.0818C7.93328 21.0615 7.93485 21.0341 7.93879 20.9995C7.94198 20.9647 7.95179 20.9225 7.96822 20.8728C7.99312 20.7977 8.03368 20.7293 8.08991 20.6679C8.14589 20.6071 8.2148 20.5641 8.29665 20.5386C8.37824 20.5139 8.46941 20.5182 8.57015 20.5516L10.2933 21.1222ZM7.61185 22.2139C7.64814 22.0532 7.71821 21.9208 7.82208 21.8168C7.92577 21.7136 8.05404 21.6435 8.2069 21.6065C8.35958 21.5704 8.52786 21.5731 8.71171 21.6146C8.89712 21.6565 9.05137 21.7266 9.17448 21.825C9.29741 21.9242 9.3835 22.0427 9.43277 22.1805C9.48186 22.3191 9.48827 22.4687 9.45198 22.6294C9.4157 22.7901 9.34571 22.922 9.24202 23.0253C9.13816 23.1293 9.00949 23.1993 8.85604 23.2353C8.70241 23.272 8.53289 23.2695 8.34749 23.2276C8.16363 23.1861 8.01062 23.1158 7.88846 23.0168C7.76613 22.9185 7.68042 22.8001 7.63133 22.6616C7.58206 22.5238 7.57557 22.3745 7.61185 22.2139ZM7.85751 22.2693C7.82995 22.3914 7.83856 22.4989 7.88334 22.5918C7.92812 22.6847 7.99723 22.7616 8.09065 22.8225C8.18408 22.8834 8.29027 22.9273 8.40924 22.9541C8.52821 22.981 8.64334 22.9871 8.75463 22.9724C8.86592 22.9578 8.96213 22.9182 9.04327 22.8537C9.12441 22.7892 9.17876 22.696 9.20632 22.5739C9.23389 22.4518 9.22489 22.3443 9.17934 22.2512C9.13378 22.1581 9.06391 22.081 8.96971 22.0199C8.87551 21.9589 8.76893 21.9149 8.64996 21.8881C8.531 21.8612 8.41625 21.8552 8.30573 21.87C8.19521 21.8848 8.09977 21.9246 8.0194 21.9892C7.93904 22.0539 7.88507 22.1473 7.85751 22.2693ZM7.38365 23.5153L9.19513 23.7345L9.16261 24.0033L8.889 23.9703L8.88672 23.9891C8.97235 24.033 9.03785 24.1015 9.08321 24.1948C9.12857 24.288 9.14469 24.3889 9.13157 24.4974C9.12909 24.5178 9.12561 24.5433 9.12111 24.5739C9.11662 24.6045 9.11263 24.6275 9.10916 24.6431L8.82612 24.6088C8.82962 24.5997 8.83577 24.5785 8.84458 24.5452C8.85407 24.5129 8.86106 24.4782 8.86553 24.4413C8.87618 24.3532 8.86721 24.2724 8.83863 24.1987C8.81074 24.1259 8.76698 24.0656 8.70736 24.0177C8.64843 23.9707 8.57808 23.9422 8.49631 23.9323L7.34998 23.7937L7.38365 23.5153ZM7.23426 24.8183L9.05179 24.9797L9.02699 25.259L7.20946 25.0975L7.23426 24.8183ZM9.3421 25.1486C9.34694 25.0942 9.36965 25.0489 9.41023 25.0127C9.45073 24.9774 9.49702 24.962 9.54909 24.9666C9.60115 24.9712 9.64401 24.9945 9.67765 25.0365C9.71122 25.0792 9.72559 25.1278 9.72076 25.1822C9.71592 25.2367 9.69325 25.2816 9.65274 25.3169C9.61216 25.3531 9.56584 25.3688 9.51378 25.3642C9.46171 25.3596 9.41889 25.3359 9.38532 25.2932C9.35168 25.2512 9.33727 25.203 9.3421 25.1486ZM8.27669 25.9599L7.17904 25.9561L7.18001 25.6757L9.00468 25.682L9.00375 25.9529L8.71864 25.9519L8.71856 25.9757C8.81107 26.0188 8.88529 26.084 8.94122 26.1713C8.99794 26.2586 9.02606 26.3711 9.02558 26.5089C9.02515 26.6325 8.99943 26.7405 8.94843 26.833C8.89821 26.9255 8.82194 26.9973 8.7196 27.0484C8.61805 27.0995 8.48966 27.1248 8.33444 27.1243L7.17501 27.1203L7.17598 26.8399L8.3164 26.8439C8.45974 26.8444 8.57154 26.8075 8.65178 26.7334C8.73282 26.6592 8.77357 26.5572 8.77402 26.4273C8.77433 26.3378 8.7552 26.2577 8.71664 26.1871C8.67807 26.1173 8.62164 26.0621 8.54733 26.0214C8.47303 25.9808 8.38282 25.9602 8.27669 25.9599ZM6.55661 28.503C6.54281 28.3682 6.54828 28.2507 6.57301 28.1502C6.59696 28.0498 6.63359 27.9645 6.68291 27.8941C6.73152 27.8247 6.7854 27.7678 6.84455 27.7235L7.02331 27.9297C6.9928 27.9583 6.95826 27.9941 6.91967 28.0371C6.88029 28.0801 6.84828 28.1367 6.82363 28.2069C6.79827 28.278 6.7912 28.3683 6.80242 28.4778C6.81743 28.6243 6.86528 28.7416 6.94595 28.8297C7.02663 28.9177 7.14259 28.954 7.29386 28.9385L7.66257 28.9007L7.66015 28.8771C7.62496 28.86 7.581 28.8351 7.52828 28.8023C7.47643 28.7701 7.428 28.721 7.383 28.6547C7.33887 28.5892 7.31075 28.4973 7.29864 28.3792C7.28363 28.2326 7.30481 28.0975 7.36219 27.9738C7.41966 27.8509 7.5111 27.7488 7.63651 27.6675C7.76201 27.5869 7.91929 27.537 8.10838 27.5176C8.29431 27.4985 8.45956 27.5147 8.60413 27.5659C8.74949 27.6171 8.86596 27.6971 8.95354 27.806C9.04191 27.9147 9.09392 28.0455 9.10958 28.1984C9.12169 28.3166 9.1116 28.4123 9.07931 28.4857C9.04789 28.5598 9.00926 28.6179 8.96342 28.66C8.91845 28.7028 8.88126 28.7361 8.85185 28.7598L8.85475 28.7881L9.1431 28.7586L9.17071 29.028L7.30353 29.2194C7.14754 29.2353 7.01706 29.2129 6.9121 29.152C6.80644 29.092 6.72467 29.0048 6.66678 28.8905C6.60819 28.7771 6.57147 28.6479 6.55661 28.503ZM7.55305 28.3913C7.56451 28.5032 7.5998 28.5951 7.65893 28.6671C7.71805 28.739 7.79772 28.7902 7.89796 28.8205C7.99819 28.8508 8.11527 28.8591 8.24921 28.8454C8.37999 28.832 8.49339 28.8005 8.58941 28.7508C8.68543 28.7012 8.75784 28.6349 8.80666 28.5518C8.85547 28.4688 8.87406 28.3706 8.86244 28.2571C8.85033 28.139 8.8103 28.0436 8.74235 27.9709C8.67449 27.899 8.58811 27.8486 8.48323 27.8195C8.37843 27.7913 8.26458 27.7834 8.14168 27.796C8.01562 27.8089 7.90616 27.84 7.8133 27.8894C7.7213 27.9394 7.65172 28.0062 7.60456 28.0899C7.55827 28.1742 7.5411 28.2747 7.55305 28.3913ZM7.66149 30.908L7.58173 30.6096L10.1628 30.8443L10.2414 31.1381L8.1217 32.6295L8.04193 32.3311L9.83271 31.0998L9.8278 31.0814L7.66149 30.908ZM8.60906 30.7727L8.93059 31.9755L8.67811 32.043L8.35658 30.8402L8.60906 30.7727ZM9.36971 33.8091L10.3734 33.4139L10.4761 33.6748L8.77826 34.3433L8.67555 34.0824L8.96294 33.9693L8.95598 33.9516C8.85409 33.9457 8.7564 33.9127 8.6629 33.8525C8.57013 33.792 8.49851 33.6976 8.44802 33.5694C8.40624 33.4633 8.39231 33.3598 8.40624 33.259C8.42091 33.1579 8.46612 33.0652 8.54187 32.9809C8.61836 32.8963 8.72882 32.8256 8.87326 32.7687L9.95208 32.3439L10.0548 32.6048L8.99365 33.0226C8.86986 33.0714 8.78475 33.1449 8.73833 33.2432C8.6922 33.3422 8.69047 33.4459 8.73312 33.5542C8.75865 33.619 8.8012 33.6784 8.86076 33.7324C8.92062 33.7872 8.9938 33.8239 9.08033 33.8426C9.16714 33.8621 9.2636 33.8509 9.36971 33.8091ZM10.9974 34.7798L10.7842 34.8847L10.3666 34.0363L10.5797 33.9314L10.9974 34.7798ZM11.0937 33.9856L11.2175 34.2371L9.65717 35.0053C9.58611 35.0402 9.5379 35.0768 9.51251 35.1149C9.48819 35.1533 9.47804 35.1919 9.48205 35.2305C9.48712 35.2695 9.49875 35.3075 9.51694 35.3444C9.53058 35.3721 9.5432 35.3942 9.55479 35.4105C9.56708 35.4265 9.57692 35.4393 9.5843 35.449L9.38354 35.6113C9.36875 35.5974 9.35063 35.5768 9.3292 35.5494C9.30705 35.5223 9.28443 35.4854 9.26135 35.4385C9.22637 35.3674 9.20736 35.2903 9.20434 35.207C9.20166 35.1245 9.22056 35.0454 9.26105 34.9699C9.30189 34.895 9.36992 34.8342 9.46513 34.7873L11.0937 33.9856ZM10.6977 35.7253L9.75613 36.2896L9.61201 36.0491L11.6989 34.7984L11.843 35.0389L11.0767 35.4982L11.0889 35.5185C11.1917 35.5068 11.2889 35.5233 11.3804 35.5682C11.473 35.6133 11.5562 35.6974 11.6299 35.8203C11.6938 35.927 11.7284 36.0332 11.7336 36.139C11.7395 36.2444 11.7119 36.3455 11.6508 36.4421C11.5907 36.5391 11.4934 36.6279 11.3589 36.7085L10.3644 37.3045L10.2202 37.064L11.1985 36.4778C11.3228 36.4033 11.3996 36.3134 11.4288 36.2081C11.4591 36.1032 11.4403 35.9939 11.3723 35.8805C11.3251 35.8017 11.2661 35.741 11.1954 35.6985C11.1251 35.6566 11.0472 35.6368 10.9617 35.6391C10.8767 35.642 10.7887 35.6708 10.6977 35.7253ZM11.0987 38.4015C10.9998 38.2698 10.9444 38.1307 10.9324 37.9842C10.9209 37.8383 10.9506 37.6952 11.0215 37.5548C11.0928 37.4151 11.2039 37.2886 11.3546 37.1754C11.5066 37.0613 11.66 36.9892 11.8147 36.9592C11.9699 36.9298 12.1159 36.941 12.2528 36.9927C12.3902 37.045 12.5083 37.1371 12.6072 37.2688C12.7061 37.4005 12.7613 37.5393 12.7728 37.6852C12.7848 37.8317 12.7548 37.9751 12.6828 38.1153C12.6113 38.2561 12.4995 38.3836 12.3475 38.4978C12.1968 38.6109 12.0442 38.682 11.8896 38.7109C11.7355 38.7404 11.5897 38.729 11.4524 38.6767C11.3155 38.625 11.1976 38.5332 11.0987 38.4015ZM11.3001 38.2503C11.3752 38.3504 11.4627 38.4134 11.5625 38.4395C11.6623 38.4656 11.7657 38.4628 11.8725 38.431C11.9794 38.3993 12.0817 38.3468 12.1792 38.2736C12.2767 38.2003 12.3559 38.1166 12.4169 38.0223C12.4778 37.928 12.51 37.8291 12.5134 37.7255C12.5168 37.6219 12.481 37.5201 12.4058 37.42C12.3307 37.32 12.2429 37.2571 12.1425 37.2315C12.0421 37.2059 11.9381 37.2092 11.8305 37.2414C11.723 37.2736 11.6205 37.3264 11.5229 37.3996C11.4254 37.4728 11.3465 37.5564 11.2862 37.6502C11.2259 37.744 11.1944 37.8424 11.1916 37.9455C11.1888 38.0486 11.225 38.1502 11.3001 38.2503ZM11.9429 39.4178L13.2796 38.1758L13.464 38.3742L13.2621 38.5618L13.275 38.5757C13.3638 38.5387 13.4584 38.5329 13.5589 38.5584C13.6594 38.584 13.7469 38.6368 13.8212 38.7168C13.8353 38.7319 13.8525 38.7511 13.8729 38.7742C13.8934 38.7974 13.9084 38.8153 13.918 38.828L13.7092 39.0221C13.7044 39.0135 13.6922 38.9951 13.6725 38.9669C13.654 38.9388 13.632 38.9111 13.6067 38.8838C13.5463 38.8188 13.4787 38.7735 13.404 38.7478C13.3304 38.7221 13.2561 38.7165 13.181 38.7312C13.1071 38.7458 13.04 38.7812 12.9796 38.8372L12.1337 39.6232L11.9429 39.4178ZM12.8411 40.3735L14.1409 39.0929L14.3377 39.2926L13.0378 40.5732L12.8411 40.3735ZM14.4576 38.981C14.4193 38.9421 14.3994 38.8955 14.3982 38.8411C14.3974 38.7874 14.4157 38.7421 14.4529 38.7054C14.4902 38.6688 14.5357 38.6512 14.5894 38.6527C14.6437 38.6548 14.6901 38.6753 14.7284 38.7142C14.7668 38.7531 14.7863 38.7995 14.787 38.8533C14.7883 38.9076 14.7703 38.9531 14.7331 38.9898C14.6958 39.0265 14.6501 39.0438 14.5958 39.0417C14.542 39.0402 14.496 39.0199 14.4576 38.981ZM15.2591 40.1297L15.1019 40.3078L14.3928 39.6822L14.55 39.5041L15.2591 40.1297ZM15.0459 39.3586L15.2561 39.5441L14.1056 40.8482C14.0532 40.9076 14.0225 40.9598 14.0135 41.0046C14.0057 41.0495 14.0109 41.089 14.0293 41.1232C14.0489 41.1573 14.0741 41.188 14.105 41.2152C14.1281 41.2357 14.1482 41.2512 14.1651 41.262C14.1826 41.2721 14.1966 41.2802 14.207 41.2863L14.0832 41.5128C14.0642 41.5056 14.0396 41.4934 14.0093 41.4762C13.9786 41.4596 13.9436 41.434 13.9044 41.3995C13.845 41.3471 13.7981 41.283 13.7636 41.2071C13.7297 41.1318 13.7171 41.0515 13.7258 40.9663C13.7351 40.8815 13.7748 40.7993 13.845 40.7198L15.0459 39.3586ZM14.1647 42.4611C14.1267 42.4326 14.0952 42.404 14.0702 42.3753C14.0447 42.3473 14.0284 42.3261 14.0213 42.3119L14.2266 42.1571C14.2706 42.2119 14.315 42.2531 14.3596 42.2807C14.4043 42.3083 14.4553 42.3174 14.5128 42.3081C14.5705 42.2999 14.6408 42.2689 14.7236 42.2153L14.851 42.1327L15.4127 40.2608L15.6559 40.4434L15.1857 41.9086L15.2009 41.92L16.4767 41.0596L16.7199 41.2422L14.8451 42.4491C14.7607 42.5036 14.6793 42.5401 14.6011 42.5585C14.5224 42.5777 14.4467 42.5788 14.3742 42.562C14.3023 42.5456 14.2325 42.512 14.1647 42.4611ZM17.006 43.596C16.9552 43.5668 16.9221 43.5236 16.9066 43.4663C16.8911 43.4089 16.898 43.3549 16.9272 43.3041C16.9564 43.2533 16.9997 43.2201 17.057 43.2047C17.1143 43.1892 17.1683 43.196 17.2191 43.2253C17.27 43.2545 17.3031 43.2977 17.3186 43.355C17.334 43.4123 17.3272 43.4664 17.298 43.5172C17.2786 43.5508 17.2523 43.5768 17.2189 43.5951C17.1863 43.6138 17.1509 43.6236 17.1129 43.6246C17.076 43.6253 17.0403 43.6158 17.006 43.596ZM18.6385 44.4189L19.5784 42.1748L19.8502 42.2887L19.0113 44.2916L20.0544 44.7285L19.9534 44.9696L18.6385 44.4189ZM20.6842 45.2244L20.387 45.1401L21.9106 43.0434L22.2031 43.1265L22.3984 45.7108L22.1013 45.6265L21.9609 43.4578L21.9427 43.4526L20.6842 45.2244ZM21.0533 44.3413L22.251 44.6811L22.1797 44.9325L20.982 44.5927L21.0533 44.3413ZM24.441 44.2133C24.4463 44.0922 24.4044 43.9907 24.315 43.9086C24.2257 43.8266 24.1084 43.7737 23.963 43.7499C23.8567 43.7326 23.7609 43.7345 23.6756 43.7559C23.591 43.7774 23.5215 43.8146 23.4671 43.8674C23.4135 43.9205 23.3805 43.9853 23.3679 44.0619C23.3574 44.126 23.3637 44.1836 23.3866 44.2347C23.4105 44.2851 23.4441 44.3295 23.4876 44.3679C23.5312 44.4056 23.578 44.4385 23.6279 44.4667C23.678 44.4942 23.7244 44.5174 23.767 44.5364L24.0001 44.642C24.0599 44.6686 24.1258 44.7026 24.1977 44.7441C24.2703 44.7857 24.3377 44.8372 24.3999 44.8987C24.4629 44.9596 24.5112 45.0325 24.5447 45.1174C24.5781 45.2023 24.5856 45.3011 24.5672 45.4136C24.546 45.5434 24.4928 45.655 24.4077 45.7487C24.3234 45.8424 24.2113 45.9095 24.0714 45.95C23.9324 45.9907 23.7706 45.9959 23.5862 45.9658C23.4142 45.9376 23.2699 45.8855 23.1531 45.8095C23.0371 45.7335 22.9513 45.64 22.8956 45.529C22.8407 45.4181 22.8193 45.2963 22.8314 45.1634L23.1316 45.2125C23.1246 45.3044 23.1428 45.3845 23.1862 45.4526C23.2305 45.52 23.2914 45.5749 23.3687 45.6172C23.447 45.6589 23.5338 45.6876 23.6291 45.7032C23.7401 45.7213 23.8427 45.7196 23.9369 45.6981C24.0312 45.6758 24.1095 45.6365 24.1717 45.58C24.234 45.5228 24.2723 45.4504 24.2866 45.3629C24.2997 45.2832 24.288 45.2147 24.2516 45.1574C24.2153 45.1001 24.1633 45.0498 24.0957 45.0067C24.0282 44.9635 23.9541 44.9233 23.8735 44.8861L23.5919 44.7533C23.4131 44.6687 23.2772 44.5675 23.1841 44.4495C23.0911 44.3316 23.0578 44.1917 23.0843 44.0299C23.1062 43.8955 23.1618 43.7842 23.2508 43.696C23.3408 43.6072 23.452 43.5452 23.5846 43.5099C23.7181 43.4739 23.8614 43.4685 24.0146 43.4936C24.1694 43.5189 24.3024 43.5691 24.4137 43.6443C24.5251 43.7187 24.6082 43.8093 24.6629 43.9162C24.7184 44.0232 24.7382 44.1375 24.7223 44.2593L24.441 44.2133ZM25.0063 46.1221L25.1342 43.6925L25.9551 43.7357C26.1457 43.7457 26.2997 43.7883 26.4171 43.8635C26.5353 43.9379 26.6206 44.0348 26.673 44.1541C26.7254 44.2735 26.7478 44.4047 26.7403 44.5479C26.7328 44.691 26.6967 44.8196 26.632 44.9336C26.5681 45.0476 26.4738 45.1362 26.3492 45.1994C26.2245 45.2619 26.0677 45.2881 25.8787 45.2782L25.2903 45.2472L25.304 44.9862L25.8829 45.0167C26.0134 45.0235 26.1194 45.0065 26.2009 44.9656C26.2823 44.9247 26.3429 44.8668 26.3825 44.792C26.4229 44.7164 26.4457 44.6299 26.4509 44.5326C26.456 44.4354 26.4424 44.3474 26.41 44.2688C26.3785 44.1902 26.3239 44.1271 26.2463 44.0794C26.1687 44.0309 26.0639 44.0031 25.9319 43.9962L25.4146 43.969L25.3005 46.1376L25.0063 46.1221ZM27.1918 46.2051L27.0558 43.776L28.5218 43.694L28.5364 43.9549L27.3646 44.0205L27.4105 44.8413L28.5065 44.7799L28.5211 45.0409L27.4251 45.1022L27.4713 45.9277L28.6622 45.8611L28.6768 46.122L27.1918 46.2051ZM28.7934 43.6611L29.1388 43.5953L30.3292 45.4242L30.3572 45.4189L30.7912 43.2803L31.1366 43.2144L31.5922 45.6043L31.3215 45.6559L30.9753 43.8402L30.952 43.8446L30.5513 45.8027L30.2899 45.8526L29.1969 44.1792L29.1736 44.1837L29.5197 45.9994L29.249 46.051L28.7934 43.6611ZM32.3194 45.4123L32.0263 45.51L32.1049 42.9194L32.3934 42.8233L34.0099 44.8491L33.7169 44.9468L32.3798 43.2335L32.3618 43.2395L32.3194 45.4123ZM32.1272 44.4747L33.3083 44.0812L33.3909 44.3291L32.2098 44.7226L32.1272 44.4747ZM35.5 44.2188C35.4476 44.245 35.3933 44.2488 35.3369 44.23C35.2806 44.2112 35.2394 44.1757 35.2131 44.1233C35.1869 44.0708 35.1832 44.0165 35.2019 43.9602C35.2207 43.9038 35.2563 43.8626 35.3087 43.8363C35.3611 43.8101 35.4154 43.8064 35.4718 43.8251C35.5281 43.8439 35.5694 43.8795 35.5956 43.9319C35.6129 43.9666 35.62 44.0029 35.6169 44.0408C35.6144 44.0783 35.6031 44.1132 35.5829 44.1455C35.5631 44.1766 35.5355 44.2011 35.5 44.2188Z" fill="white"/>
</svg>
