<svg width="49" height="14" viewBox="0 0 49 14" fill="none" xmlns="http://www.w3.org/2000/svg">
<path d="M7.03244 0.198752L7.04031 0.162002L7.06131 0.00712658L6.09006 0.00187664C5.21331 -0.00337336 4.94425 0.00187659 4.92062 0.0241891C4.90881 0.0346891 4.60562 1.18575 4.06619 3.27C3.80894 4.26488 3.59237 5.05894 3.5845 5.03532C3.57662 5.01169 3.2695 3.87638 2.89937 2.51269C2.67779 1.67891 2.44853 0.847184 2.21162 0.0176268C2.1985 0.00450175 1.0225 -0.000748425 0.0696229 0.00712658C-0.0681897 0.00843908 -0.145627 -0.261936 1.30075 4.33707C1.50025 4.97363 1.80081 5.87532 1.96619 6.33994C2.15781 6.87544 2.29431 7.29019 2.3875 7.63538C2.55287 8.29294 2.55812 8.70507 2.52269 9.18676C2.48069 9.74194 2.47544 13.6663 2.51612 13.7319C2.54762 13.7818 4.38644 13.8054 4.561 13.7582C4.58856 13.7503 4.60694 13.7241 4.62006 13.5758C4.66337 13.4484 4.66731 12.9405 4.66731 10.8326V8.14069L4.78544 7.76925C4.86287 7.52644 5.05581 6.88725 5.21594 6.34913L5.64512 4.9185C6.33944 2.65575 7.00094 0.431064 7.01931 0.303752L7.03375 0.200064L7.03244 0.198752ZM17.3303 3.46425V3.60469H17.308L17.2962 7.4805L17.2844 11.2382L16.9838 11.544C16.6465 11.8866 16.3774 12.0178 16.1333 11.9561C15.8669 11.8892 15.8748 11.9929 15.8524 7.55138L15.8314 3.46294H13.8968V3.60338H13.8745V8.03963C13.8745 12.7922 13.8745 12.7896 14.116 13.266C14.3076 13.6466 14.5885 13.8317 15.0676 13.8947C15.6989 13.9787 16.3801 13.6926 17.0114 13.0783L17.2857 12.8119V13.2726C17.2857 13.6703 17.2975 13.7359 17.3697 13.7556C17.4878 13.7884 18.9526 13.791 19.1101 13.7582L19.2413 13.7306V13.5941L19.2636 13.5902V3.43669L17.3316 3.46294L17.3303 3.46425ZM12.4242 5.46713C12.2404 4.68094 11.8979 4.152 11.3322 3.78713C10.4449 3.21357 9.43038 3.15188 8.49063 3.6165C7.8055 3.95513 7.36319 4.51688 7.13613 5.34113C7.10708 5.44028 7.08644 5.5417 7.07444 5.64432C7.01669 5.93569 7.01013 6.36882 6.99438 8.39138C6.97075 11.5073 7.0075 11.8774 7.39731 12.5848C7.78056 13.2791 8.57463 13.7884 9.43956 13.8934C9.69944 13.9249 10.2271 13.8763 10.5316 13.791C11.2206 13.5994 11.8821 13.0547 12.1748 12.4365C12.3037 12.189 12.3877 11.9206 12.4229 11.6438C12.5082 11.1804 12.5148 10.4297 12.5148 8.51869C12.5148 6.08138 12.5069 5.81494 12.4255 5.46582L12.4242 5.46713ZM10.2179 11.8183C10.0177 11.9471 9.77541 11.9932 9.54194 11.9469C9.36475 11.9089 9.12456 11.6306 9.05106 11.3773C8.95919 11.061 8.95263 6.66019 9.03138 5.79788C9.16263 5.36607 9.5275 5.14032 9.9265 5.24794C10.2376 5.33194 10.3964 5.52619 10.4869 5.93438C10.5539 6.23757 10.5618 6.61425 10.5473 8.83107C10.5381 10.3011 10.5329 11.0203 10.4843 11.4062C10.4358 11.649 10.3544 11.7146 10.2179 11.8196V11.8183ZM47.1543 7.67869H48.0888L48.0743 6.83213C48.0599 6.05513 48.0481 5.96719 47.9444 5.75588C47.7803 5.42382 47.5388 5.2755 47.1556 5.2755C46.6949 5.2755 46.4035 5.49863 46.2657 5.95538C46.2066 6.14963 46.145 7.48707 46.1896 7.60257C46.2145 7.66688 46.3484 7.67869 47.1543 7.67869ZM40.9068 5.75325C40.8512 5.63656 40.7617 5.53934 40.65 5.47425C40.5383 5.40916 40.4096 5.37924 40.2807 5.38838C40.0362 5.40586 39.8032 5.49897 39.6139 5.65482L39.4473 5.78213V11.8643L39.6139 11.9916C39.9919 12.2803 40.4067 12.3407 40.6928 12.1491C40.8115 12.0656 40.8978 11.9436 40.937 11.8039C41.0118 11.5886 41.0183 11.3117 41.0091 8.75232C40.9986 6.08532 40.9934 5.92782 40.9068 5.75325Z" fill="white"/>
</svg>
