<svg width="53" height="15" viewBox="0 0 53 15" fill="none" xmlns="http://www.w3.org/2000/svg">
<path d="M2.69349 0.0516589C1.62226 0.50037 0.444806 1.76642 0.0728965 3.3568C-0.398168 5.37118 1.56176 6.22328 1.72265 5.94427C1.91183 5.61604 1.37145 5.5051 1.2602 4.45981C1.11644 3.10978 1.74408 1.60133 2.53404 0.939442C2.68067 0.816395 2.6738 0.987635 2.6738 1.30417C2.6738 1.87029 2.64253 6.95254 2.64253 8.0132C2.64253 9.44834 2.58326 9.90156 2.47672 10.3495C2.36895 10.8032 2.19546 11.1099 2.32681 11.228C2.47364 11.3601 3.10057 11.0458 3.46345 10.5394C3.89863 9.93191 4.051 9.20224 4.07838 8.41013C4.1114 7.45508 4.10996 5.93955 4.1114 5.07515C4.11263 4.28242 4.12473 1.96104 4.09745 0.565482C4.09079 0.223002 3.14148 -0.13609 2.69349 0.0516589ZM40.7296 6.76828C40.6951 7.51445 40.5299 8.09759 40.3249 8.50898C39.9281 9.3054 39.1047 9.55262 38.755 8.40787C38.5645 7.78382 38.5556 6.74162 38.6925 5.87075C38.8319 4.98369 39.2214 4.31369 39.8661 4.37409C40.502 4.43387 40.7997 5.25316 40.7296 6.76828ZM30.0092 11.3976C30.0006 12.6373 29.8054 13.7242 29.3871 14.04C28.7936 14.4877 27.9959 14.1518 28.1611 13.2472C28.3072 12.4467 28.9984 11.6291 30.0109 10.6302C30.0109 10.6302 30.013 10.858 30.0092 11.3976ZM29.8472 6.7611C29.8109 7.44073 29.6347 8.12333 29.4424 8.50908C29.0456 9.3055 28.2163 9.55447 27.8726 8.40798C27.6376 7.62458 27.6938 6.61088 27.81 5.97206C27.961 5.14324 28.3268 4.3743 28.9836 4.3743C29.6222 4.3743 29.9372 5.07494 29.8472 6.7611ZM23.6369 6.75084C23.5979 7.47046 23.4575 8.07206 23.2323 8.50908C22.8246 9.30007 22.018 9.55088 21.6624 8.40798C21.4059 7.58387 21.4932 6.46025 21.5998 5.85322C21.7582 4.95241 22.1546 4.3138 22.7734 4.3743C23.409 4.43643 23.718 5.25336 23.6369 6.75084ZM52.0969 7.59146C51.9416 7.59146 51.8706 7.75163 51.8119 8.0211C51.6085 8.95871 51.3945 9.17025 51.1188 9.17025C50.8107 9.17025 50.5338 8.70616 50.4625 7.77695C50.4067 7.04626 50.4157 5.70115 50.4871 4.36312C50.5018 4.08821 50.4259 3.81618 49.6886 3.54834C49.3713 3.43309 48.9101 3.26339 48.6804 3.81771C48.0316 5.3839 47.7778 6.62728 47.718 7.13219C47.7149 7.15833 47.6828 7.16377 47.6773 7.10266C47.6391 6.69814 47.5541 5.96293 47.5435 4.41849C47.5414 4.11713 47.4776 3.86068 47.145 3.65068C46.9291 3.5143 46.2738 3.27333 46.0379 3.56014C45.8334 3.79454 45.5965 4.42557 45.3506 5.17369C45.1506 5.78175 45.0114 6.19293 45.0114 6.19293C45.0114 6.19293 45.014 4.55251 45.0164 3.9302C45.0174 3.69549 44.8564 3.61725 44.8078 3.6031C44.5894 3.53973 44.1587 3.43381 43.976 3.43381C43.7504 3.43381 43.6953 3.55973 43.6953 3.74348C43.6953 3.76757 43.6597 5.90326 43.6597 7.39663C43.6597 7.46154 43.6597 7.53229 43.66 7.60756C43.5353 8.29395 43.1308 9.22562 42.6909 9.22562C42.2504 9.22562 42.0426 8.83618 42.0426 7.05579C42.0426 6.01718 42.0738 5.56549 42.0891 4.81429C42.098 4.38158 42.1152 4.04935 42.1142 3.97398C42.1109 3.74276 41.7112 3.62617 41.5251 3.5831C41.3382 3.53973 41.1758 3.52281 41.0489 3.53009C40.8694 3.54035 40.7423 3.65796 40.7423 3.81997C40.7423 3.90692 40.7434 4.07201 40.7434 4.07201C40.5121 3.70861 40.1402 3.45575 39.8928 3.38244C39.2263 3.18453 38.5309 3.35988 38.0063 4.09395C37.5894 4.67709 37.3381 5.33775 37.2391 6.28675C37.1668 6.98063 37.1904 7.68415 37.319 8.27919C37.1636 8.95061 36.8754 9.22562 36.5597 9.22562C36.1013 9.22562 35.7691 8.4777 35.8077 7.18387C35.8331 6.33289 36.0034 5.73571 36.1895 4.87171C36.2689 4.50339 36.2044 4.31062 36.0427 4.12584C35.8943 3.95635 35.5782 3.8697 35.1239 3.97614C34.8003 4.05212 34.3376 4.13384 33.9142 4.1966C33.9142 4.1966 33.9398 4.09457 33.9607 3.91492C34.0709 2.97259 33.0468 3.04898 32.72 3.34993C32.5251 3.52968 32.3923 3.74163 32.3419 4.12266C32.262 4.72744 32.7552 5.0127 32.7552 5.0127C32.5935 5.75345 32.1967 6.721 31.7872 7.42063C31.5679 7.79541 31.4001 8.07319 31.1835 8.3684C31.1764 7.18368 31.1841 5.99892 31.2066 4.81439C31.2155 4.38168 31.2329 4.05827 31.232 3.9828C31.2295 3.81382 31.1307 3.74983 30.9254 3.66903C30.7437 3.59746 30.5289 3.54804 30.3061 3.5306C30.025 3.50887 29.8556 3.65786 29.8601 3.83422C29.8609 3.86755 29.8609 4.07201 29.8609 4.07201C29.6297 3.70861 29.2578 3.45575 29.0103 3.38244C28.3438 3.18453 27.6484 3.35988 27.1238 4.09395C26.707 4.67709 26.434 5.49556 26.3566 6.27957C26.2846 7.01016 26.2979 7.63104 26.3961 8.15419C26.2902 8.67796 25.9854 9.22573 25.641 9.22573C25.2005 9.22573 24.9499 8.83618 24.9499 7.05579C24.9499 6.01718 24.9811 5.56549 24.9965 4.81429C25.0054 4.38168 25.0225 4.04935 25.0216 3.97398C25.0183 3.74276 24.6185 3.62627 24.4324 3.5831C24.2378 3.53799 24.0697 3.52158 23.9406 3.53112C23.7704 3.54373 23.6506 3.69621 23.6506 3.80992V4.07201C23.4194 3.70861 23.0475 3.45575 22.8001 3.38244C22.1336 3.18453 21.442 3.36275 20.9135 4.09395C20.569 4.57066 20.29 5.09914 20.1465 6.26911C20.1049 6.60719 20.0866 6.92393 20.089 7.21975C19.9516 8.06016 19.3446 9.02875 18.8482 9.02875C18.5577 9.02875 18.281 8.46519 18.281 7.26436C18.281 5.66475 18.38 3.38715 18.3968 3.16772C18.3968 3.16772 19.0241 3.15705 19.1455 3.15562C19.4584 3.15213 19.7417 3.15962 20.1586 3.13819C20.3675 3.12763 20.5689 2.37735 20.3532 2.28455C20.2554 2.24251 19.5643 2.2058 19.2904 2.19995C19.0601 2.19483 18.4188 2.14725 18.4188 2.14725C18.4188 2.14725 18.4763 0.635516 18.4897 0.475863C18.501 0.342665 18.3287 0.274169 18.2301 0.23264C17.99 0.131127 17.7751 0.0824207 17.5205 0.0299207C17.1686 -0.042677 17.0091 0.0283826 16.9779 0.325233C16.9309 0.775892 16.9066 2.09588 16.9066 2.09588C16.6484 2.09588 15.7664 2.04543 15.5082 2.04543C15.2683 2.04543 15.0092 3.07738 15.3411 3.0901C15.7227 3.10486 16.3879 3.11778 16.8288 3.13091C16.8288 3.13091 16.8091 5.44603 16.8091 6.16094C16.8092 6.23681 16.8095 6.31023 16.8099 6.38119C16.5672 7.64601 15.7125 8.32933 15.7125 8.32933C15.896 7.49251 15.521 6.86405 14.8456 6.33207C14.5967 6.13612 14.1055 5.76503 13.5559 5.35836C13.5559 5.35836 13.8741 5.04459 14.1565 4.41336C14.3565 3.96609 14.3652 3.45452 13.8741 3.34162C13.0629 3.155 12.394 3.75086 12.1944 4.38701C12.0398 4.87981 12.1223 5.24537 12.4252 5.62517C12.4472 5.65296 12.4713 5.68136 12.4959 5.70987C12.3129 6.06281 12.0613 6.53807 11.8482 6.9066C11.2567 7.92994 10.81 8.73918 10.4723 8.73918C10.2024 8.73918 10.206 7.91743 10.206 7.14808C10.206 6.48486 10.255 5.48766 10.2942 4.4554C10.3071 4.11395 10.1363 3.91943 9.8502 3.74327C9.67629 3.63622 9.30521 3.42581 9.09028 3.42581C8.76852 3.42581 7.84033 3.46959 6.96342 6.00641C6.85288 6.32613 6.6357 6.90875 6.6357 6.90875L6.65447 3.85811C6.65447 3.78654 6.61632 3.71743 6.52906 3.67016C6.3813 3.58987 5.98663 3.42581 5.63564 3.42581C5.4685 3.42588 5.38493 3.50347 5.38493 3.65857L5.35438 8.43136C5.35438 8.79404 5.36381 9.21711 5.3997 9.40209C5.43538 9.58728 5.49332 9.73801 5.56489 9.82763C5.63656 9.91715 5.71931 9.98554 5.85579 10.0136C5.98284 10.0398 6.67846 10.1291 6.71466 9.86331C6.75793 9.54462 6.75967 9.20009 7.12492 7.91487C7.6936 5.91382 8.43496 4.93765 8.78359 4.59086C8.8446 4.53036 8.91412 4.52667 8.91074 4.62582C8.89597 5.06449 8.84358 6.16083 8.8084 7.09189C8.71397 9.5841 9.16729 10.046 9.81524 10.046C10.3109 10.046 11.0096 9.55354 11.7586 8.30687C12.1759 7.61213 12.5913 6.91623 13.0047 6.21918C13.2316 6.42928 13.4864 6.65538 13.7409 6.89696C14.3326 7.45847 14.5268 7.99208 14.3979 8.49821C14.2995 8.88509 13.9282 9.28387 13.2675 8.89637C13.075 8.78327 12.9927 8.6958 12.7991 8.56835C12.6951 8.49996 12.5363 8.47945 12.4411 8.55122C12.1937 8.73764 12.0522 8.97492 11.9714 9.26859C11.8929 9.55436 12.1791 9.7054 12.4758 9.83758C12.7312 9.95129 13.2803 10.0543 13.6304 10.066C14.9947 10.1117 16.0877 9.40732 16.8485 7.59043C16.9847 9.15959 17.5642 10.0475 18.5713 10.0475C19.2445 10.0475 19.9195 9.17723 20.2147 8.32113C20.2994 8.67007 20.425 8.97358 20.587 9.23024C21.3629 10.4597 22.8682 10.1951 23.6243 9.15108C23.8581 8.82849 23.8936 8.71262 23.8936 8.71262C24.004 9.69833 24.7978 10.0428 25.2523 10.0428C25.7614 10.0428 26.2869 9.8021 26.6553 8.97276C26.6984 9.06293 26.7457 9.14875 26.7971 9.23024C27.5731 10.4597 29.0784 10.1951 29.8345 9.15108C29.8701 9.10213 29.9013 9.0577 29.9282 9.01778L29.9503 9.66531L29.2542 10.3038C28.0873 11.3733 27.2009 12.1844 27.1357 13.1291C27.0527 14.3336 28.029 14.7813 28.7688 14.8399C29.5529 14.9022 30.2256 14.4687 30.6385 13.8619C31.0019 13.3278 31.2397 12.1783 31.2222 11.0431C31.2153 10.5885 31.2038 10.0105 31.1948 9.39081C31.6045 8.91514 32.066 8.31385 32.4909 7.61022C32.954 6.84333 33.4503 5.81343 33.7044 5.01188C33.7044 5.01188 34.1356 5.01568 34.5957 4.98553C34.7429 4.97589 34.7852 5.00604 34.758 5.11381C34.7252 5.24424 34.1766 7.35993 34.6773 8.76933C35.0198 9.73422 35.7923 10.0445 36.2502 10.0445C36.7864 10.0445 37.2992 9.63968 37.574 9.03859C37.6072 9.10555 37.6418 9.17036 37.6796 9.23034C38.4555 10.4598 39.9556 10.1935 40.717 9.15108C40.8889 8.91585 40.9864 8.71262 40.9864 8.71262C41.1497 9.73288 41.9432 10.048 42.3976 10.048C42.871 10.048 43.3203 9.85388 43.6847 8.99142C43.7001 9.37123 43.724 9.68172 43.7618 9.77954C43.7849 9.83953 43.9194 9.91458 44.0172 9.95088C44.4504 10.1115 44.8919 10.0356 45.0553 10.0026C45.1686 9.97959 45.2568 9.88874 45.2689 9.65434C45.3007 9.03859 45.2812 8.00408 45.4679 7.23514C45.7811 5.94489 46.0735 5.44439 46.2121 5.19666C46.2897 5.05772 46.3772 5.03485 46.3804 5.18179C46.3869 5.47915 46.4017 6.35207 46.5231 7.52512C46.6123 8.38768 46.7312 8.8976 46.8228 9.0591C47.0841 9.52053 47.4066 9.54237 47.6693 9.54237C47.8364 9.54237 48.1859 9.49622 48.1546 9.20255C48.1393 9.05941 48.166 8.1747 48.4749 6.90352C48.6766 6.07337 49.0129 5.3234 49.1342 5.04911C49.1791 4.948 49.1999 5.02767 49.1991 5.04326C49.1735 5.61492 49.1162 7.48482 49.3491 8.50754C49.6649 9.89295 50.5781 10.048 50.8964 10.048C51.5758 10.048 52.1315 9.53119 52.3186 8.17132C52.3637 7.84401 52.297 7.59146 52.0969 7.59146Z" fill="white"/>
</svg>
