<svg width="44" height="44" viewBox="0 0 44 44" fill="none" xmlns="http://www.w3.org/2000/svg">
<mask id="path-1-inside-1_8_51" fill="white">
<path d="M43.9803 21.9902C43.9803 34.135 34.135 43.9803 21.9902 43.9803C9.84533 43.9803 0 34.135 0 21.9902C0 9.84533 9.84533 0 21.9902 0C34.135 0 43.9803 9.84533 43.9803 21.9902ZM6.59705 21.9902C6.59705 30.4915 13.4888 37.3833 21.9902 37.3833C30.4915 37.3833 37.3833 30.4915 37.3833 21.9902C37.3833 13.4888 30.4915 6.59705 21.9902 6.59705C13.4888 6.59705 6.59705 13.4888 6.59705 21.9902Z"/>
</mask>
<path d="M43.9803 21.9902C43.9803 34.135 34.135 43.9803 21.9902 43.9803C9.84533 43.9803 0 34.135 0 21.9902C0 9.84533 9.84533 0 21.9902 0C34.135 0 43.9803 9.84533 43.9803 21.9902ZM6.59705 21.9902C6.59705 30.4915 13.4888 37.3833 21.9902 37.3833C30.4915 37.3833 37.3833 30.4915 37.3833 21.9902C37.3833 13.4888 30.4915 6.59705 21.9902 6.59705C13.4888 6.59705 6.59705 13.4888 6.59705 21.9902Z" fill="#26824A" stroke="#FFBB32" stroke-width="1.18068" mask="url(#path-1-inside-1_8_51)"/>
</svg>
