<svg width="73" height="73" viewBox="0 0 73 73" fill="none" xmlns="http://www.w3.org/2000/svg">
<g clip-path="url(#clip0_424_2515)">
<path d="M0.131836 22.8972H72.9995V50.2551H0.131836" fill="#F0F5FF" fill-opacity="0.25"/>
<path d="M38.4883 36.4656C37.9994 36.4656 37.6473 36.6256 37.29 36.7885V40.4778C37.6326 40.5113 37.8276 40.5113 38.1531 40.5113C39.3264 40.5113 39.4869 39.9741 39.4869 39.2254V37.463C39.4869 36.9099 39.3033 36.4656 38.4883 36.4656ZM30.6979 36.2641C29.8839 36.2641 29.6988 36.7104 29.6988 37.263V37.5731H31.697V37.263C31.6968 36.7102 31.511 36.2641 30.6979 36.2641ZM15.6068 40.1045C15.6068 40.5412 15.813 40.7684 16.269 40.7684C16.7581 40.7684 17.0473 40.6093 17.4044 40.4452V39.5708H16.335C15.8289 39.571 15.6068 39.6645 15.6068 40.1045ZM46.0667 36.4656C45.2515 36.4656 44.969 36.9099 44.969 37.4625V39.4816C44.969 40.0363 45.2515 40.4811 46.0667 40.4811C46.8795 40.4811 47.1643 40.0358 47.1643 39.4816V37.4625C47.1641 36.9099 46.8795 36.4656 46.0667 36.4656ZM11.6114 42.3675H9.21569V36.5752H8.01758V34.5788H9.21569V33.3804C9.21569 31.7519 9.89186 30.7834 11.8119 30.7834H13.4115V32.7799H12.4124C11.6645 32.7799 11.6148 33.059 11.6148 33.5795L11.6114 34.5785H13.4231L13.211 36.575H11.6114V42.3675ZM19.8019 42.3824H17.8047L17.7189 41.8778C16.8066 42.3824 15.9926 42.4644 15.4557 42.4644C13.9906 42.4644 13.2113 41.4872 13.2113 40.1358C13.2113 38.5418 14.1207 37.9724 15.7482 37.9724H17.4047V37.6278C17.4047 36.8135 17.3112 36.575 16.0581 36.575H14.0089L14.2094 34.5785H16.449C19.1989 34.5785 19.8019 35.4467 19.8019 37.6439V42.3824ZM26.5934 36.7217C25.3507 36.5087 24.9936 36.462 24.396 36.462C23.3217 36.462 22.9969 36.6988 22.9969 37.6095V39.3329C22.9969 40.2438 23.3217 40.4814 24.396 40.4814C24.9936 40.4814 25.3507 40.4344 26.5934 40.2207V42.1672C25.5045 42.4116 24.7955 42.4754 24.1965 42.4754C21.6231 42.4754 20.6012 41.1243 20.6012 39.1719V37.7733C20.6012 35.82 21.6231 34.466 24.1965 34.466C24.7955 34.466 25.505 34.5308 26.5934 34.7749V36.7217ZM34.0927 39.1719H29.6986V39.3329C29.6986 40.2438 30.0234 40.4814 31.0972 40.4814C32.063 40.4814 32.652 40.4344 33.8925 40.2207V42.1672C32.6963 42.4116 32.0731 42.4754 30.8986 42.4754C28.3255 42.4754 27.3024 41.1243 27.3024 39.1719V37.5729C27.3024 35.8653 28.0619 34.466 30.6982 34.466C33.3349 34.466 34.093 35.8487 34.093 37.5729L34.0927 39.1719ZM41.8829 39.2086C41.8829 41.0954 41.3431 42.4716 38.0724 42.4716C36.8921 42.4716 36.1984 42.3675 34.8945 42.167V31.3827L37.29 30.9839V34.7559C37.8073 34.5636 38.478 34.4662 39.0879 34.4662C41.4841 34.4662 41.8831 35.5393 41.8831 37.2625L41.8829 39.2086ZM49.5627 39.2498C49.5627 40.8773 48.8897 42.4562 46.0746 42.4562C43.2579 42.4562 42.5726 40.8773 42.5726 39.2498V37.6784C42.5726 36.0504 43.2579 34.4713 46.0746 34.4713C48.8897 34.4713 49.5627 36.0504 49.5627 37.6784V39.2498ZM57.236 39.2498C57.236 40.8773 56.5625 42.4562 53.7484 42.4562C50.9317 42.4562 50.2459 40.8773 50.2459 39.2498V37.6784C50.2459 36.0504 50.9317 34.4713 53.7484 34.4713C56.5625 34.4713 57.236 36.0504 57.236 37.6784V39.2498ZM65.1124 42.3675H62.515L60.319 38.7069V42.3675H57.9232V31.3827L60.319 30.9839V38.0555L62.515 34.5788H65.1124L62.7145 38.3726L65.1124 42.3675ZM53.7402 36.4656C52.9264 36.4656 52.644 36.9099 52.644 37.4625V39.4816C52.644 40.0363 52.9264 40.4811 53.7402 40.4811C54.553 40.4811 54.8405 40.0358 54.8405 39.4816V37.4625C54.8405 36.9099 54.553 36.4656 53.7402 36.4656ZM66.4802 41.0016C66.8836 41.0016 67.205 41.3301 67.205 41.7402C67.205 42.1569 66.8836 42.4819 66.4768 42.4819C66.0732 42.4819 65.745 42.1566 65.745 41.7402C65.745 41.3301 66.0732 41.0016 66.4768 41.0016H66.4802ZM66.4763 41.1166C66.1517 41.1166 65.8857 41.3956 65.8857 41.7407C65.8857 42.0918 66.1517 42.368 66.4802 42.368C66.8081 42.3713 67.0708 42.0918 67.0708 41.7438C67.0708 41.3961 66.8081 41.1166 66.4802 41.1166H66.4763ZM66.3385 42.1708H66.2076V41.3462C66.2763 41.3364 66.3419 41.327 66.4402 41.327C66.5655 41.327 66.6472 41.3527 66.6966 41.3891C66.7457 41.4255 66.7715 41.4812 66.7715 41.56C66.7715 41.6682 66.7 41.734 66.6115 41.7605V41.767C66.6836 41.7802 66.733 41.8451 66.7489 41.9665C66.7686 42.0949 66.7884 42.1443 66.8016 42.1708H66.6638C66.644 42.1448 66.6238 42.0687 66.6081 41.961C66.5884 41.8554 66.5361 41.8159 66.4303 41.8159H66.3387V42.1708H66.3385ZM66.3385 41.7142H66.4339C66.5416 41.7142 66.6339 41.6747 66.6339 41.573C66.6339 41.5002 66.5812 41.4282 66.4339 41.4282C66.391 41.4282 66.3609 41.4318 66.3385 41.4347V41.7142Z" fill="black"/>
</g>
<defs>
<clipPath id="clip0_424_2515">
<rect width="73" height="73" fill="white"/>
</clipPath>
</defs>
</svg>
