<svg width="60" height="15" viewBox="0 0 60 15" fill="none" xmlns="http://www.w3.org/2000/svg">
<path d="M23.6786 8.78566L26.9893 12.8571H24.375L21.4286 9.11789V12.8571H19.2857V2.14289H21.4286V8.44289L24.15 5.35711H26.8821L23.6786 8.78566ZM15.1071 5.14289C14.6379 5.14995 14.1775 5.27059 13.7651 5.4945C13.3527 5.7184 13.0008 6.0389 12.7393 6.42855V5.35711H10.7143V12.8571H12.8571V9.35355C12.829 9.09926 12.8535 8.84189 12.9291 8.59748C13.0048 8.35307 13.1299 8.12683 13.2967 7.93286C13.4636 7.73889 13.6685 7.58133 13.8989 7.46999C14.1292 7.35864 14.38 7.2959 14.6357 7.28566C15.8786 7.28566 16.0714 8.50711 16.0714 9.35355V12.8571H18.2143V8.88211C18.2143 6.525 17.4321 5.14289 15.15 5.14289H15.1071ZM34.2857 9.27855C34.2939 9.43566 34.2939 9.59281 34.2857 9.75H28.6607V9.825C28.752 10.2718 28.9995 10.6714 29.3589 10.9522C29.7182 11.233 30.1658 11.3765 30.6214 11.3571C30.9829 11.3728 31.3438 11.3155 31.6825 11.1884C32.0213 11.0614 32.3309 10.8674 32.5929 10.6179L34.0179 11.6893C33.5663 12.1503 33.023 12.5114 32.4233 12.7495C31.8235 12.9875 31.1805 13.0972 30.5357 13.0714C30.0017 13.1052 29.4667 13.0239 28.9668 12.8332C28.4669 12.6424 28.0138 12.3466 27.638 11.9658C27.2623 11.5849 26.9726 11.1279 26.7886 10.6255C26.6046 10.1231 26.5305 9.58702 26.5714 9.05356C26.5605 8.52692 26.6581 8.00366 26.8582 7.5164C27.0583 7.02914 27.3566 6.58832 27.7346 6.22143C28.1125 5.85453 28.562 5.56941 29.055 5.38385C29.548 5.19829 30.0739 5.11627 30.6 5.14289C32.6143 5.14289 34.2857 6.56789 34.2857 9.27855ZM32.2929 8.35711C32.285 8.14489 32.234 7.9365 32.1429 7.74464C32.0519 7.55277 31.9228 7.38145 31.7634 7.24111C31.604 7.10077 31.4177 6.99435 31.2159 6.92833C31.014 6.86231 30.8008 6.83808 30.5893 6.85711C29.6471 6.75527 28.7939 7.41891 28.6607 8.35711H32.2929ZM2.14289 2.14289H0V12.8571H6.42855V10.7145H2.14289V2.14289ZM40.7143 2.14289H42.8571V12.8571H40.8321V12.1071C40.575 12.4239 40.2472 12.6761 39.8752 12.8436C39.5031 13.011 39.097 13.0891 38.6893 13.0714C38.1913 13.0587 37.7012 12.9442 37.249 12.735C36.7969 12.5258 36.3923 12.2263 36.0601 11.855C35.728 11.4837 35.4752 11.0484 35.3175 10.5759C35.1598 10.1033 35.1003 9.60348 35.1429 9.10711C35.0923 8.61004 35.1457 8.10788 35.2998 7.63258C35.4539 7.15728 35.7052 6.71926 36.0377 6.34638C36.3703 5.9735 36.7768 5.67393 37.2315 5.46674C37.6861 5.25954 38.179 5.14925 38.6786 5.14289C39.0507 5.12656 39.4223 5.18447 39.7718 5.31323C40.1214 5.442 40.4417 5.63904 40.7143 5.89289V2.14289ZM40.875 9.10711C40.9087 8.8597 40.8889 8.60794 40.8171 8.36882C40.7452 8.12969 40.6229 7.90875 40.4584 7.7209C40.2939 7.53305 40.0911 7.38266 39.8635 7.27986C39.636 7.17706 39.389 7.12426 39.1393 7.125C38.1143 7.19941 37.3376 8.0809 37.3929 9.10711C37.3376 10.1333 38.1143 11.0149 39.1393 11.0893C39.389 11.0901 39.636 11.0373 39.8636 10.9345C40.0911 10.8317 40.294 10.6813 40.4585 10.4934C40.623 10.3055 40.7453 10.0846 40.8171 9.84544C40.889 9.6063 40.9087 9.35453 40.875 9.10711ZM8.57145 1.92855C8.22685 1.93341 7.89694 2.06886 7.64834 2.30753C7.39974 2.54621 7.25098 2.87034 7.23211 3.21445C7.23211 3.95402 7.83176 4.55367 8.57145 4.55367C9.31113 4.55367 9.91055 3.95391 9.91055 3.21445C9.89165 2.87038 9.74289 2.5463 9.49432 2.30765C9.24575 2.069 8.91588 1.93355 8.57133 1.92867M7.5 12.8571H9.64289V5.35711H7.5V12.8571ZM60 1.07145V13.9286C60 14.2127 59.8871 14.4852 59.6862 14.6862C59.4852 14.8871 59.2127 15 58.9286 15H46.0714C45.7873 15 45.5148 14.8871 45.3138 14.6862C45.1129 14.4852 45 14.2127 45 13.9286V1.07145C45 0.78728 45.1129 0.514754 45.3138 0.313819C45.5148 0.112884 45.7873 0 46.0714 0L58.9286 0C59.2127 0 59.4852 0.112884 59.6862 0.313819C59.8871 0.514754 60 0.78728 60 1.07145ZM49.2857 5.35711H47.1429V12.8571H49.2857V5.35711ZM49.5536 3.21434C49.5536 2.47465 48.9539 1.875 48.2143 1.875C47.4748 1.875 46.875 2.47465 46.875 3.21434C46.875 3.95391 47.4746 4.55355 48.2143 4.55355C48.9539 4.55355 49.5536 3.95391 49.5536 3.21434ZM57.8571 8.88211C57.8571 6.525 57.075 5.14289 54.7929 5.14289C54.3164 5.14296 53.8473 5.26028 53.4269 5.48449C53.0064 5.7087 52.6476 6.03292 52.3821 6.42855V5.35711H50.3571V12.8571H52.5V9.35355C52.4719 9.09926 52.4964 8.84189 52.572 8.59748C52.6477 8.35307 52.7728 8.12683 52.9396 7.93286C53.1064 7.73889 53.3114 7.58133 53.5418 7.46999C53.7721 7.35864 54.0229 7.2959 54.2786 7.28566C55.5214 7.28566 55.7143 8.50711 55.7143 9.35355V12.8571H57.8571V8.88211Z" fill="white"/>
</svg>
