<svg width="32" height="21" viewBox="0 0 32 21" fill="none" xmlns="http://www.w3.org/2000/svg">
<path d="M31.4152 6.28911C31.2288 4.05654 31.0805 3.33205 30.6211 2.40148C30.0108 1.16905 29.1301 0.519358 27.8753 0.376296C26.9054 0.266046 23.254 0.109858 19.877 0.0350457C14.0285 -0.0948918 4.41308 0.155796 3.18458 0.469483C2.63626 0.603904 2.13795 0.892684 1.74871 1.30161C0.973022 2.07336 0.50971 3.18111 0.324648 4.71411C-0.09929 8.21323 -0.108479 12.4395 0.299709 16.0659C0.475584 17.6252 0.837836 18.6384 1.51771 19.4732C1.94165 19.9942 2.67402 20.4365 3.32765 20.5691C3.78702 20.6623 6.0839 20.7909 9.43077 20.9104C9.92953 20.9287 11.2486 20.9589 12.3642 20.9786C14.6873 21.0193 18.9595 20.9957 21.4021 20.9274C23.0453 20.8815 26.0405 20.7594 26.6009 20.7161C26.7584 20.7043 27.1233 20.6807 27.412 20.6649C28.382 20.6098 28.9988 20.4077 29.5777 19.9522C30.3271 19.3629 30.9072 18.2749 31.1527 16.9978C31.385 15.7903 31.5398 13.6391 31.5713 11.1965C31.5976 9.15561 31.5622 8.05573 31.4152 6.28648V6.28911ZM8.12615 5.48061L7.0394 5.49373L6.99215 17.0831L6.04977 17.0949C5.32134 17.1054 5.09952 17.0936 5.08246 17.0477C5.06934 17.0149 5.0549 14.4017 5.04834 11.2412L5.03652 5.49373L2.91421 5.46748V3.65623L9.18665 3.68117L9.2129 5.46617L8.12615 5.48061ZM14.7897 12.1232V17.1067H13.073V16.5817C13.073 16.1867 13.0585 16.0567 13.0113 16.0567C12.9772 16.0567 12.8223 16.1867 12.6661 16.3455C12.3262 16.6907 11.9245 16.9676 11.5807 17.0962C10.8693 17.3627 10.1947 17.2065 9.90721 16.7117C9.6434 16.2589 9.63946 16.1565 9.63946 11.4551V7.13698H11.3549L11.368 11.2031C11.3812 15.1984 11.3825 15.2719 11.4783 15.4346C11.6056 15.6499 11.7985 15.7089 12.1057 15.6236C12.2868 15.5737 12.4102 15.4858 12.7028 15.1944L13.073 14.8269V7.13698H14.7897V12.1205V12.1232ZM21.4861 16.3954C21.3352 16.7327 20.9978 17.0621 20.7209 17.1435C20.0003 17.3561 19.4215 17.1829 18.7535 16.5542C18.5461 16.3586 18.3532 16.2011 18.3243 16.2011C18.2893 16.2011 18.2713 16.352 18.2705 16.6539V17.1067H16.5537V3.65623H18.2705V5.85073C18.2705 7.05692 18.2862 8.04523 18.3059 8.04523C18.3256 8.04523 18.5067 7.88511 18.7088 7.69086C19.1735 7.24329 19.5607 7.04642 20.0528 7.00967C20.9309 6.94273 21.4546 7.39554 21.6935 8.42717C21.7683 8.74873 21.7748 9.11623 21.7748 12.0995C21.7748 15.7325 21.7762 15.7483 21.4861 16.3954ZM28.7508 14.4004C28.7404 14.7205 28.7066 15.0394 28.6497 15.3545C28.4108 16.2392 27.7756 16.8665 26.8568 17.1238C25.6205 17.4703 24.2581 16.9033 23.7147 15.8152C23.4102 15.2049 23.3984 15.0829 23.3984 12.0995C23.3984 9.66748 23.4076 9.36823 23.485 9.03617C23.7055 8.09773 24.2515 7.49004 25.1768 7.15273C25.4446 7.05561 25.7242 7.00442 26.0037 6.99917C27.0025 6.97817 27.9922 7.51498 28.4082 8.38911C28.6878 8.97842 28.7232 9.23173 28.7508 10.8934L28.7757 12.3844L25.1152 12.4093L25.102 13.4107C25.0823 14.8243 25.1782 15.2587 25.5601 15.5147C25.8803 15.7312 26.3738 15.7142 26.6416 15.4792C26.8936 15.2587 26.9645 15.0212 26.9894 14.3282L27.0117 13.7205H28.7797L28.7508 14.4004Z" fill="black"/>
</svg>
